<svg width="983" height="270" xmlns="http://www.w3.org/2000/svg" xmlns:xlink="http://www.w3.org/1999/xlink"
     overflow="hidden">
    <defs>
        <clipPath id="clip0">
            <rect x="0" y="0" width="983" height="270"/>
        </clipPath>
    </defs>
    <g clip-path="url(#clip0)">
        <rect x="0" y="0" width="983" height="270.192" fill="#FFFFFF"/>
        <g>
            <g>
                <g>
                    <path d="M34.452 55.7906C34.422 55.7865 34.3916 55.7845 34.3613 55.7845L31.6388 55.7845C34.4398 53.7474 36.1015 50.4967 36.1123 47.0333 36.1123 42.339 35.0921 40.2758 31.9138 38.5419 31.5849 38.3523 31.1645 38.4651 30.9747 38.794 30.785 39.1229 30.8978 39.5433 31.2267 39.733 31.2361 39.7384 31.2456 39.7436 31.2551 39.7485 33.9886 41.2404 34.7373 42.8065 34.7373 47.036 34.7373 51.7248 31.625 54.4301 29.0139 55.8731 28.6817 56.057 28.5614 56.4753 28.7451 56.8075 28.8662 57.0264 29.0966 57.1622 29.3466 57.1622L34.3111 57.1622C35.0278 57.2888 35.5156 57.9601 35.4145 58.6809 35.2857 59.3621 34.6823 59.8496 33.9893 59.8325L24.6283 59.8325C24.3313 59.8325 22.9721 59.3038 21.7443 56.7188 21.7443 56.7119 21.7346 56.7085 21.7312 56.7016 21.7074 56.6623 21.6798 56.6254 21.6487 56.5916 21.6227 56.5543 21.5929 56.5197 21.56 56.4885 21.5545 56.4836 21.5518 56.4761 21.5456 56.4713 21.3813 56.3434 21.1922 56.1997 20.9832 56.0409 18.4119 54.0856 13.0625 50.0239 13.0625 44 13.0625 40.4628 14.5248 37.7829 15.9397 35.1911 16.0999 34.8968 16.2594 34.6053 16.4148 34.3145 19.4157 28.7155 19.0362 23.1832 15.3993 19.5147 15.1366 19.2406 14.7014 19.2314 14.4273 19.4942 14.1532 19.757 14.144 20.1922 14.4068 20.4663 14.4121 20.4718 14.4176 20.4773 14.4231 20.4827 17.6591 23.7469 17.9438 28.5519 15.2034 33.6648 15.0485 33.9522 14.8915 34.2414 14.7324 34.5324 13.3052 37.1477 11.6875 40.1122 11.6875 44 11.6875 50.7059 17.6186 55.2097 20.1513 57.1313 20.3129 57.2536 20.4518 57.3602 20.5872 57.4647 21.8563 60.038 23.5201 61.2026 24.6283 61.2026L33.9893 61.2026C35.3742 61.2264 36.5641 60.2247 36.7771 58.8562 36.9782 57.3685 35.9388 55.9982 34.452 55.7906Z"
                          transform="matrix(1 0 0 1.00046 658 29.0134)"/>
                    <path d="M45.1 40.4841C45.1 40.5013 44.8518 42.2235 42.8065 45.6218 42.6931 45.8102 42.4628 46.2076 42.4628 46.2076 42.3909 46.3137 42.3508 46.4382 42.3473 46.5665L42.3473 56.375C42.3473 56.7547 42.6551 57.0625 43.0348 57.0625L43.6446 57.0625C44.3358 57.0468 44.9393 57.5278 45.078 58.2051 45.2064 58.9536 44.7037 59.6644 43.9552 59.7927 43.8792 59.8058 43.8022 59.8124 43.725 59.8125L40.9248 59.8125C40.1654 59.8125 39.5498 59.1969 39.5498 58.4375L39.5498 49.7702C39.5498 49.3905 39.242 49.0827 38.8623 49.0827 38.4826 49.0827 38.1748 49.3905 38.1748 49.7702L38.1748 58.4375C38.1748 59.9563 39.4061 61.1875 40.9248 61.1875L43.5999 61.1875C45.0446 61.2121 46.2764 60.1458 46.4592 58.7125 46.6092 57.1993 45.504 55.8509 43.9907 55.7009 43.9025 55.6922 43.8138 55.6877 43.725 55.6875L43.725 46.7603C46.0852 42.9543 46.4317 40.9228 46.4668 40.6698 46.7968 39.1144 46.938 37.5249 46.8875 35.9356L46.8875 35.5719C46.9409 33.5383 46.652 31.5101 46.033 29.5721 45.7111 28.6692 45.5441 27.7182 45.5393 26.7596 45.583 25.6415 46.5184 24.7668 47.6369 24.7981 50.9532 24.7339 53.6118 22.0341 53.625 18.7172 53.6394 18.1382 53.4536 17.572 53.0991 17.1139L47.5585 9.06538 47.5585 6.92244C47.5726 6.42074 47.3189 5.9494 46.8923 5.68494 46.3665 5.37291 45.697 5.45026 45.2561 5.874L35.9563 14.575C34.7422 15.7215 34.0542 17.3175 34.0539 18.9874L34.0539 19.3916C34.0539 21.1234 32.1503 22.6676 29.7399 24.6221 25.0181 28.4522 18.5508 33.6971 18.5508 45.6851 18.5133 47.8286 18.6757 49.9709 19.0355 52.0843 19.0974 52.408 19.3804 52.6422 19.7099 52.6426 19.7538 52.6426 19.7976 52.6382 19.8406 52.6295 20.2131 52.5577 20.4571 52.1978 20.3858 51.8251 20.0427 49.7971 19.8887 47.7416 19.9258 45.6851 19.9258 34.3523 26.0989 29.3459 30.6061 25.6905 33.3004 23.5049 35.4289 21.7786 35.4289 19.3916L35.4289 18.9874C35.4281 17.6977 35.9588 16.4647 36.8961 15.5788L46.1773 6.86263C46.18 6.85997 46.1844 6.86001 46.187 6.86272 46.1883 6.86398 46.189 6.86567 46.189 6.86744L46.189 9.28125C46.1891 9.42054 46.2316 9.55646 46.3107 9.67107L52.0018 17.9355C52.4384 18.4814 52.3002 19.3105 51.6711 20.6608 50.9019 22.2905 49.2905 23.3574 47.4898 23.4293 45.6706 23.4697 44.206 24.9356 44.1671 26.7548 44.1709 27.8501 44.3568 28.9372 44.7171 29.9716 45.2985 31.7796 45.5675 33.6735 45.5125 35.5719L45.5125 35.9418C45.5617 37.44 45.4292 38.9387 45.1179 40.4051Z"
                          transform="matrix(1 0 0 1.00046 658 29.0134)"/>
                    <path d="M48.1243 14.7813C48.1243 15.3508 47.6626 15.8125 47.0931 15.8125 46.5235 15.8125 46.0618 15.3508 46.0618 14.7813 46.0618 14.2117 46.5235 13.75 47.0931 13.75 47.6626 13.75 48.1243 14.2117 48.1243 14.7813Z"
                          transform="matrix(1 0 0 1.00046 658 29.0134)"/>
                </g>
            </g>
        </g>
        <g>
            <g>
                <g>
                    <path d="M62.1099 19.4194 55.3693 9.62945 55.3693 6.74061C55.3693 6.0184 54.4866 5.69742 54.0052 6.1789L42.9313 16.5306C41.6474 17.7342 40.9252 19.4194 40.9252 21.1848L40.9252 21.6663C40.9252 28.4871 22.4687 31.2957 22.4687 52.962 22.4687 55.8508 22.6292 58.3384 23.0304 60.4248 22.8699 60.2643 22.7094 60.1038 22.4687 59.9433 20.6231 58.1779 18.4564 54.2459 18.4564 45.7399 18.4564 42.7708 19.9009 39.7215 21.3453 36.8326 23.5921 32.1784 26.16 26.8822 21.7465 22.3885 20.7836 21.4255 19.2589 21.4255 18.3762 22.3885 17.4133 23.3514 17.4133 24.8761 18.3762 25.7588 20.2218 27.6044 19.4194 29.771 17.0923 34.666 15.4071 37.9561 13.6417 41.7276 13.6417 45.7399 13.6417 54.0052 15.5676 60.0236 19.2589 63.5544 21.1848 65.4 23.2712 66.1222 24.7156 66.4432 26.2402 69.653 28.0859 70.616 28.8883 70.616L38.5178 70.616C39.882 70.616 40.9252 69.5728 40.9252 68.2086 40.9252 67.0049 40.0425 65.9617 38.8388 65.8012L36.1104 65.8012C39.1598 64.1161 41.7276 60.6655 41.7276 54.5669 41.7276 49.2707 40.6844 47.104 37.1536 45.1782 36.5919 44.8572 36.3512 44.135 36.6721 43.5732 36.9931 43.0115 37.7153 42.7708 38.2771 43.0918 43.172 45.6596 44.135 49.2707 44.135 54.5669 44.135 57.4557 43.5732 60.0236 42.5301 62.1902L42.5301 68.2086C42.5301 69.5728 43.5732 70.616 44.9374 70.616 46.3016 70.616 47.3448 69.5728 47.3448 68.2086L47.3448 60.826C47.9065 60.1841 48.4682 59.4618 48.9497 58.6594L48.9497 68.2086C48.9497 69.5728 49.9929 70.616 51.3571 70.616 52.7212 70.616 53.7644 69.5728 53.7644 68.2086L53.7644 46.8633C54.3261 44.456 54.5669 42.3696 54.5669 40.9252 54.5669 34.5858 52.962 33.9438 52.962 30.4933 52.962 28.7279 54.4064 27.2834 56.1718 27.2834 59.7026 27.2834 62.5914 24.3946 62.5914 20.8638 62.5914 20.3021 62.4309 19.8206 62.1099 19.4194Z"
                          transform="matrix(1.01252 0 0 1 417 78.0361)"/>
                </g>
            </g>
        </g>
        <g>
            <g>
                <g>
                    <path d="M64.7924 41.0483 60.541 39.5508C60.1475 39.4041 59.7096 39.6042 59.5629 39.9976 59.4161 40.3911 59.6162 40.829 60.0097 40.9758 60.0185 40.9791 60.0273 40.9821 60.0361 40.9851L64.2681 42.4755C65.0508 42.7806 65.4379 43.6624 65.1328 44.4451 64.8276 45.2278 63.9459 45.615 63.1632 45.3098L58.2386 43.5665C57.8428 43.4262 57.4082 43.6335 57.2679 44.0293 57.1276 44.4252 57.3348 44.8598 57.7307 45.0001L62.6374 46.7372C64.2076 47.3341 65.9645 46.5452 66.5615 44.9749 67.1584 43.4047 66.3694 41.6479 64.7992 41.0509 64.7969 41.05 64.7947 41.0492 64.7924 41.0483Z"
                          transform="matrix(1 0 0 1.00046 724 82.0379)"/>
                    <path d="M67.7962 26.4375 67.5062 26.1475 67.7687 22.2949C67.8656 20.9296 67.4121 19.5823 66.5093 18.5536 65.7524 17.6373 64.7558 16.9493 63.6306 16.5664L63.6306 13.7027C63.6306 12.8627 62.9496 12.1819 62.1097 12.1819 61.7314 12.1819 61.3667 12.3229 61.0868 12.5773L58.1719 15.2257C58.1529 15.2429 58.1348 15.261 58.1176 15.28 57.946 15.4713 57.7361 15.6246 57.5017 15.73L55.92 16.4458C53.8084 17.397 52.0466 18.9841 50.8811 20.9855L47.5564 26.6727C47.1188 27.4175 46.356 27.9128 45.4975 28.0097L41.0892 28.4972C38.0788 28.8807 35.203 29.9761 32.7004 31.6926L29.824 33.6702C27.7019 35.1144 25.9428 37.0301 24.6845 39.2674 24.2097 40.0854 23.8667 40.9731 23.668 41.8979 20.7501 46.1326 13.4632 48.003 5.46359 46.5486 5.05059 46.4725 4.65405 46.7455 4.5779 47.1585 4.50175 47.5715 4.77483 47.9681 5.18783 48.0442 5.18916 48.0445 5.19049 48.0447 5.19182 48.0449 7.00433 48.3778 8.84311 48.5473 10.6859 48.5514 15.9581 48.5514 20.5696 47.086 23.4312 44.4617 23.4282 44.6386 23.4236 44.8072 23.4236 44.9975 23.4236 48.6893 25.0356 50.2596 26.4582 51.6454 27.6853 52.8413 28.7458 53.8744 28.7458 56.2708 28.7477 57.9499 30.1084 59.3106 31.7875 59.3125L41.6729 59.3125C43.3527 59.3125 44.7145 57.9507 44.7145 56.2708 44.7145 54.591 43.3527 53.2292 41.6729 53.2292L39.2748 53.2292C39.8956 52.7258 40.424 52.1181 40.8364 51.4336 42.4058 51.273 48.2182 50.5727 51.0572 48.7825L56.6142 54.2194C57.8141 55.3957 59.7402 55.3765 60.9164 54.1766 60.9664 54.1256 61.0146 54.0729 61.0608 54.0185 62.089 52.7534 61.9689 50.9098 60.7853 49.7887L56.5251 45.6112C56.2806 45.3709 56.2269 44.9967 56.394 44.6973L59.445 39.2416C60.0339 38.1908 60.4063 37.0327 60.5403 35.8355L60.9075 32.5837C60.9415 32.2821 61.1966 32.0543 61.5001 32.0544L63.2286 32.0544C64.2064 32.0524 65.1581 31.7399 65.9467 31.1619L67.527 29.9984C68.5742 29.2271 68.7978 27.753 68.0266 26.7058 67.9566 26.6108 67.8796 26.5213 67.7962 26.4379ZM59.3961 32.4128 59.2693 33.5356 49.3221 26.6658 49.9399 25.6088 59.446 32.1741C59.4248 32.2526 59.4081 32.3323 59.3961 32.4128ZM58.1173 38.4993 55.0664 43.9549C54.5656 44.8535 54.7269 45.9758 55.4604 46.6971L59.7202 50.8742C60.3257 51.4395 60.405 52.3715 59.9036 53.0309 59.3261 53.6731 58.3374 53.7255 57.6952 53.148 57.6894 53.1428 57.6837 53.1377 57.6781 53.1324L48.5229 44.1758C48.2226 43.8821 47.7411 43.8875 47.4476 44.1878 47.1539 44.488 47.1592 44.9695 47.4595 45.2632L49.9289 47.6792C47.8353 48.8374 43.9324 49.527 41.5481 49.8227 42.0952 47.9672 41.8278 45.9667 40.8126 44.32 40.5924 43.9624 40.1239 43.8511 39.7663 44.0713 39.4087 44.2915 39.2973 44.76 39.5176 45.1176 41.0569 47.623 40.2739 50.9019 37.7685 52.4413 36.9305 52.9562 35.9663 53.2289 34.9828 53.2292L34.8291 53.2292C34.4091 53.2292 34.0687 53.5696 34.0687 53.9896 34.0687 54.4095 34.4091 54.75 34.8291 54.75L41.6729 54.75C42.5128 54.75 43.1937 55.4309 43.1937 56.2708 43.1937 57.1108 42.5128 57.7916 41.6729 57.7916L31.7875 57.7916C30.9479 57.7907 30.2675 57.1104 30.2666 56.2708 30.2666 53.2329 28.8066 51.8108 27.5186 50.556 26.1946 49.2661 24.9437 48.0477 24.9437 44.9973 24.9437 42.5711 25.1642 41.5443 26.0159 40.0028 27.1596 37.9721 28.7577 36.2335 30.6853 34.9233L33.5617 32.9457C35.8608 31.3685 38.5023 30.3613 41.2678 30.0075L45.6644 29.5213C46.7823 29.3936 47.8046 28.83 48.5092 27.9529L59.0759 35.2503 59.0292 35.6647C58.9175 36.661 58.6076 37.6247 58.1176 38.4993ZM66.6253 28.7736 65.0451 29.937C64.5188 30.3246 63.8823 30.5336 63.2286 30.5336L61.5001 30.5336C61.07 30.535 60.6507 30.6682 60.2987 30.9153L50.7097 24.2925 52.1947 21.7527C53.204 20.0264 54.7247 18.6563 56.5465 17.8318L58.1291 17.1155C58.5427 16.9292 58.9143 16.661 59.2212 16.3271L62.0968 13.7143C62.0999 13.7114 62.1047 13.7117 62.1075 13.7148 62.1088 13.7162 62.1095 13.718 62.1095 13.7199L62.1095 17.119C62.1098 17.4561 62.3319 17.753 62.6553 17.8485 63.7145 18.1074 64.6615 18.7021 65.3548 19.5436 65.9933 20.272 66.316 21.2245 66.2514 22.1911L65.9822 26.1384C65.9564 26.5169 66.0956 26.8881 66.364 27.1562L66.7204 27.5126C67.0459 27.8382 67.0458 28.3662 66.7202 28.6917 66.6907 28.7212 66.6589 28.7485 66.6253 28.7732Z"
                          transform="matrix(1 0 0 1.00046 724 82.0379)"/>
                    <path d="M64.6383 23.1927C64.6383 23.8227 64.1276 24.3333 63.4977 24.3333 62.8677 24.3333 62.357 23.8227 62.357 23.1927 62.357 22.5628 62.8677 22.0521 63.4977 22.0521 64.1276 22.0521 64.6383 22.5628 64.6383 23.1927Z"
                          transform="matrix(1 0 0 1.00046 724 82.0379)"/>
                </g>
            </g>
        </g>
        <g>
            <g>
                <g>
                    <path d="M129.594 41.0833C128.385 35.7969 123.552 31.7188 117.813 31.7188L109.505 31.7188 107.844 41.3854C107.693 42.2917 107.693 43.349 108.146 44.2552 108.75 45.6146 110.109 46.5208 111.469 46.8229 112.979 47.125 114.49 46.6719 115.547 45.4636 116.151 44.7083 116.604 43.8021 116.755 42.8958L117.813 37.1563C117.964 36.4011 118.719 35.7969 119.625 35.9479 120.38 36.099 120.984 36.8542 120.833 37.7604L119.927 43.349C119.625 45.4636 118.417 47.4271 116.604 48.6354 115.396 49.5417 113.885 49.8438 112.375 49.8438 111.922 49.8438 111.469 49.8438 111.016 49.6927 108.75 49.2396 106.938 48.0313 105.729 46.0677 104.823 44.4063 104.521 42.5938 104.823 40.7813L106.182 32.7761 95.6094 44.4063C93.4948 46.8229 90.1719 48.3333 86.849 48.3333L43.8021 48.3333C39.875 48.3333 36.25 49.8438 33.5313 52.4115 28.3958 51.5052 19.7865 48.7865 14.651 40.1771 13.4427 38.0625 10.724 37.1563 8.60938 38.2135 6.19271 39.4219 5.4375 42.2917 6.79688 44.5573 12.8385 54.8281 22.2031 58.9063 29.151 60.7188 28.849 61.625 28.6979 62.5313 28.6979 63.4375L28.6979 108.599C28.6979 110.865 30.2083 112.828 32.3229 113.281 35.1927 113.885 37.7604 111.62 37.7604 108.901L37.7604 80.0521 58.3021 80.0521C61.474 82.7709 67.2136 84.5834 74.0104 84.5834 74.0104 84.5834 76.5781 84.5834 80.0521 84.5834L80.0521 108.448C80.0521 110.865 81.8646 113.13 84.2813 113.281 86.849 113.432 89.1146 111.318 89.1146 108.75L89.1146 84.5834 95.1563 84.5834 95.1563 108.599C95.1563 110.865 96.6667 112.828 98.7813 113.281 101.651 113.885 104.219 111.62 104.219 108.901L104.219 80.8073C107.844 76.2761 110.26 69.4792 110.26 69.4792L116.302 54.375 129.896 54.375C134.88 54.375 138.958 50.2969 138.958 45.3125L129.594 41.0833Z"
                          transform="matrix(1 0 0 1.00736 299 -5.00233)"/>
                    <path d="M43.8021 107.24C43.8021 109.807 45.7656 111.771 48.3333 111.771 50.9011 111.771 52.8646 109.807 52.8646 107.24L52.8646 81.5625 43.8021 81.5625 43.8021 107.24Z"
                          transform="matrix(1 0 0 1.00736 299 -5.00233)"/>
                </g>
            </g>
        </g>
        <g>
            <g>
                <g>
                    <path d="M123.223 38.6813 115.537 35.2093C114.019 30.1007 109.336 26.5876 104.007 26.56L98.6386 26.56 97.4439 26.5919C95.2922 26.6548 93.2555 27.5777 91.7896 29.1541L83.403 38.2183C81.6798 40.1197 79.2386 41.2124 76.6724 41.2307L36.7623 41.2307C32.1673 41.2356 27.9311 43.7143 25.6756 47.7176 18.5341 48.2589 9.12094 43.0546 6.49014 34.2833 6.27854 33.5779 5.53512 33.1776 4.82967 33.3891 4.12421 33.6007 3.72387 34.3441 3.93547 35.0496 6.81814 44.659 16.4431 50.3933 24.5344 50.4376 24.2023 51.577 24.0324 52.7575 24.0299 53.9443L24.0032 66.5028 21.3808 77.0292C21.3541 77.1346 21.3407 77.2428 21.3408 77.3515L21.3408 88C21.3411 88.1091 21.3544 88.2178 21.3808 88.3236L23.2903 95.9596C23.8808 98.3355 26.0153 100.003 28.4636 99.9996L34.6687 99.9996C35.4047 99.9996 36.0015 99.4032 36.002 98.6672L36.0045 95.2024C36.0056 92.9052 34.2888 90.9702 32.0079 90.6975L32.0079 80.5524 41.8978 70.6615 51 70.5762C54.209 73.086 59.515 74.5726 65.3379 74.5726L74.6739 74.5726 74.6739 88C74.6742 88.1091 74.6875 88.2178 74.7139 88.3236L76.6234 95.9596C77.2139 98.3355 79.3484 100.003 81.7967 99.9996L88.0018 99.9996C88.7378 99.9996 89.3346 99.4032 89.3351 98.6672L89.3376 95.2024C89.3387 92.9052 87.6219 90.9702 85.341 90.6975L85.341 74.4971C87.218 74.1724 89.0234 73.5199 90.6743 72.5694L90.6743 92C90.6743 92.7364 91.2712 93.3334 92.0076 93.3334L92.8044 93.3334C93.8354 93.3334 94.6711 94.1691 94.6711 95.2 94.6711 95.2003 94.6711 95.2006 94.6711 95.2008L94.6704 97.3334 92.0078 97.3334C91.2714 97.3334 90.6744 97.9303 90.6744 98.6667 90.6744 99.4031 91.2714 100 92.0078 100L96.0026 100C96.7386 100 97.3354 99.4036 97.3359 98.6676L97.3384 95.2028C97.3395 92.9056 95.6227 90.9706 93.3418 90.6979L93.3418 70.3587C95.3815 67.672 97.1363 64.7804 98.578 61.7308L103.576 49.2318 114.674 49.2318C119.826 49.2251 124.002 45.0492 124.007 39.8965 124.007 39.3727 123.701 38.8972 123.223 38.6813ZM114.674 46.5651 102.673 46.5651C102.128 46.5649 101.637 46.8969 101.435 47.4034L96.1282 60.681C94.7326 63.6156 93.0315 66.3951 91.0534 68.9734 89.0556 70.7112 86.558 71.7706 83.92 71.9988 83.22 72.0466 82.6763 72.6276 82.6752 73.3292L82.6752 92C82.6752 92.7364 83.2722 93.3334 84.0086 93.3334L84.8054 93.3334C85.8363 93.3334 86.672 94.1691 86.672 95.2 86.672 95.2003 86.672 95.2006 86.672 95.2008L86.6704 97.3334 81.7975 97.3334C80.5734 97.335 79.5059 96.5014 79.2108 95.3132L77.3411 87.836 77.3411 73.2392C77.3411 72.5028 76.7442 71.9059 76.0078 71.9059L65.3384 71.9059C59.886 71.9059 55.0259 70.5303 52.3384 68.2259 52.0932 68.0166 51.7808 67.9026 51.4584 67.905L41.3287 68C40.9794 68.0032 40.6452 68.1435 40.3983 68.3907L29.7316 79.0574C29.4816 79.3074 29.3411 79.6464 29.3411 80L29.3411 92C29.3411 92.7364 29.938 93.3334 30.6744 93.3334L31.4712 93.3334C32.5021 93.3334 33.3379 94.1691 33.3379 95.2 33.3379 95.2003 33.3379 95.2006 33.3379 95.2008L33.3371 97.3334 28.4641 97.3334C27.24 97.335 26.1725 96.5014 25.8775 95.3132L24.0077 87.836 24.0077 77.516 26.6301 66.9894C26.6568 66.884 26.6701 66.7758 26.6701 66.6671L26.6701 55.919 26.6968 53.963C26.7032 48.4064 31.206 43.9036 36.7625 43.8972L76.6724 43.8972C79.9975 43.8925 83.1643 42.4766 85.3847 40.0016L93.7467 30.9652C94.109 30.5707 94.5406 30.2463 95.0202 30.0079L94.5884 36.3877C94.3715 39.6187 96.8106 42.4155 100.041 42.64L100.308 42.6583C100.444 42.6678 100.581 42.6721 100.716 42.6716 103.798 42.6671 106.351 40.2793 106.561 37.2049L106.797 33.7463C106.859 33.0125 106.314 32.3676 105.58 32.3057 104.847 32.244 104.202 32.7887 104.14 33.5225 104.139 33.5365 104.138 33.5505 104.137 33.5645L103.901 37.0232C103.78 38.7864 102.254 40.1183 100.49 39.9979 100.49 39.9979 100.49 39.9979 100.49 39.9979L100.223 39.9796C98.4611 39.8569 97.1306 38.3313 97.2486 36.5688L97.7484 29.256 104.007 29.2257C108.347 29.2456 112.109 32.2353 113.108 36.4588 113.201 36.8655 113.479 37.2052 113.859 37.3768L121.289 40.7333C120.863 44.0637 118.031 46.5606 114.674 46.5651Z"
                          transform="matrix(-1 0 0 1.00046 918 0)"/>
                    <path d="M40.0084 90.6979 40.0084 77.3334C40.0084 76.597 39.4115 76 38.6751 76 37.9387 76 37.3417 76.597 37.3417 77.3334L37.3417 92C37.3417 92.7364 37.9387 93.3334 38.6751 93.3334L39.4719 93.3334C40.5028 93.3334 41.3386 94.1691 41.3386 95.2 41.3386 95.2003 41.3386 95.2006 41.3386 95.2008L41.3371 97.3334 38.6744 97.3334C37.938 97.3334 37.3411 97.9303 37.3411 98.6667 37.3411 99.4031 37.938 100 38.6744 100L42.6692 100C43.4052 100 44.002 99.4036 44.0025 98.6676L44.0051 95.2028C44.0061 92.9056 42.2893 90.9706 40.0084 90.6979Z"
                          transform="matrix(-1 0 0 1.00046 918 0)"/>
                    <path d="M112.005 38C112.005 39.1046 111.11 40 110.005 40 108.901 40 108.005 39.1046 108.005 38 108.005 36.8954 108.901 36 110.005 36 111.11 36 112.005 36.8954 112.005 38Z"
                          transform="matrix(-1 0 0 1.00046 918 0)"/>
                </g>
            </g>
        </g>
        <g>
            <g>
                <g>
                    <path d="M37.6007 73.3673 35.308 73.3673C33.0153 74.7429 30.4933 75.66 27.8566 76.1185L27.8566 76.8064C27.8566 78.7552 29.3469 80.2455 31.2957 80.2455L37.6007 80.2455C39.5495 80.2455 41.0398 78.7552 41.0398 76.8064 41.0398 74.8575 39.5495 73.3673 37.6007 73.3673Z"
                          transform="matrix(1.00862 0 0 1 484 7.0032)"/>
                    <path d="M64.311 49.4083C60.9865 50.44 57.4328 49.6375 55.0255 47.1155L46.1985 39.091C39.5495 33.1299 29.4615 32.786 22.4687 38.4032 19.6028 34.9641 20.0614 29.9201 23.5005 27.0542 24.9907 25.7932 26.8249 25.22 28.6591 25.22 30.6079 25.22 32.0982 23.7297 32.0982 21.7809 32.0982 19.8321 30.6079 18.3418 28.6591 18.3418 20.4053 18.3418 13.7564 24.9907 13.7564 33.2445 13.7564 37.2568 15.3613 41.1545 18.2272 43.9057 16.7369 47.4595 16.9662 51.4717 18.8004 54.7962L20.2906 57.6621C21.437 59.7255 22.2395 62.0183 22.5834 64.4256L22.698 65.4574C22.698 65.8013 22.8126 66.0305 22.698 66.3745L18.5711 70.5014C17.8833 71.1892 17.5394 71.9916 17.5394 72.9087L17.5394 83.6845C17.5394 85.6334 19.0296 87.1236 20.9785 87.1236L27.2835 87.1236C29.2323 87.1236 30.7225 85.6334 30.7225 83.6845 30.7225 81.7357 29.2323 80.2455 27.2835 80.2455L24.4175 80.2455 24.4175 74.1697C29.5762 74.1697 34.5055 71.9916 38.0593 68.2086L40.9252 71.9916C43.9057 76.0039 48.3765 78.7552 53.3059 79.3284 55.1401 79.443 56.6304 80.4747 57.4328 82.1943L58.2353 84.0285C58.4645 85.5187 59.4963 86.6651 60.8719 87.009L81.5065 91.5945C83.3406 91.9384 85.1748 90.792 85.6334 88.9578 85.9773 87.1236 84.8309 85.2895 82.9967 84.9455L71.0745 82.1943 72.1063 79.2137 87.5822 81.3918C89.4164 81.6211 91.1359 80.2455 91.3652 78.4113 91.5945 76.5771 90.3335 74.8575 88.4993 74.6283L74.2844 72.6795 74.2844 72.4502 74.2844 72.3355 79.7869 65.9159 85.8626 68.5525C90.2188 70.5014 95.3774 68.5525 97.3263 64.1964L97.4409 63.8525 93.5433 59.1524C94.3457 53.9937 91.7091 48.9497 86.8944 46.8863L82.6528 45.5106C81.6211 45.1667 80.704 45.0521 79.6723 45.0521L79.0991 45.0521C78.9845 45.0521 78.7552 45.0521 78.6405 45.0521L76.1185 49.9815C75.7746 50.5546 75.66 51.2425 75.7746 51.9303 75.8893 52.962 76.5771 53.9937 77.6088 54.4523 77.8381 54.5669 78.0674 54.6815 78.2966 54.6815 79.0991 54.9108 80.0162 54.6815 80.704 54.3376 81.2772 53.9937 81.7357 53.4205 82.0796 52.8474 82.3089 52.2742 82.9967 52.0449 83.5699 52.2742 84.1431 52.5035 84.3724 53.1913 84.1431 53.7645 84.1431 53.7645 84.1431 53.7645 84.1431 53.7645 83.6845 54.6815 82.8821 55.5986 81.965 56.1718 81.0479 56.745 80.1308 56.9743 79.0991 57.0889 78.6405 57.0889 78.2966 57.0889 77.8381 56.9743 77.3795 56.8596 76.921 56.745 76.5771 56.5157 74.9722 55.5986 73.9405 54.1084 73.5965 52.2742 73.4819 51.1278 73.7112 49.9815 74.1697 48.9497L75.8893 45.6253C75.66 45.7399 75.4307 45.7399 75.0868 45.8545L64.311 49.4083ZM74.1697 67.2915 64.7695 52.7327C64.7695 52.7327 64.8842 52.7327 64.8842 52.7327 65.1134 52.6181 65.4574 52.5035 65.6866 52.3888L68.2086 51.5864 76.5771 64.5403 74.1697 67.2915Z"
                          transform="matrix(1.00862 0 0 1 484 7.0032)"/>
                </g>
            </g>
        </g>
        <g>
            <g>
                <g>
                    <path d="M70.6868 29.6796 69.9396 29.6796C69.4799 26.2746 67.3203 23.3371 64.2076 21.8826 63.5629 19.0832 62.3027 15.6731 59.9706 15.6731 57.5916 15.6731 56.3272 19.2215 55.6947 22.0503 53.9481 22.9279 52.3836 24.1284 51.084 25.5885L46.6292 29.907 41.1568 35.3795C39.7648 36.7791 37.8706 37.5636 35.8967 37.5582L19.8384 37.5582 15.6123 33.3317C14.2269 32.0083 12.0458 32.0083 10.6604 33.3317 9.29313 34.6982 9.29251 36.9144 10.659 38.2817 10.6595 38.2822 10.66 38.2827 10.6604 38.2831L14.887 42.5097 14.887 51.6445 14.8861 51.6489 14.8861 61.2784C14.886 61.3725 14.9011 61.466 14.931 61.5553L16.0834 65.0116C16.5584 66.4425 17.8973 67.4078 19.405 67.4062L21.8889 67.4062C23.8212 67.4042 25.3874 65.839 25.3905 63.9067L25.3905 63.3806C25.3908 61.8717 24.2626 60.6011 22.7643 60.423L22.7643 58.1392 24.878 56.0259 41.1482 56.0259 41.1482 61.2784C41.1482 61.3725 41.1633 61.466 41.1931 61.5553L42.3455 65.0116C42.8208 66.4425 44.1598 67.4078 45.6676 67.4062L48.1515 67.4062C50.0838 67.4035 51.6497 65.8382 51.6531 63.9059L51.6531 63.3806C51.6536 61.8716 50.5253 60.6009 49.0269 60.4226L49.0269 55.5532 53.4043 51.7951 53.4043 55.94 53.4039 55.9422 53.4039 61.2784C53.4039 61.7618 53.7958 62.1538 54.2793 62.1538L54.8046 62.1538C55.4814 62.1538 56.0301 62.7025 56.0301 63.3793L56.0297 63.9055C56.0279 64.8716 55.245 65.6542 54.2789 65.6555L52.6708 65.6555C52.1874 65.6555 51.7954 66.0474 51.7954 66.5309 51.7954 67.0144 52.1874 67.4063 52.6708 67.4063L54.2793 67.4063C56.2113 67.4037 57.7772 65.8388 57.7809 63.9068L57.7814 63.3806C57.7813 61.872 56.6532 60.6016 55.1552 60.4231L55.1552 55.9417 55.1556 55.9417 55.1556 50.517C55.1598 46.7461 58.2157 43.6902 61.9866 43.686L66.1178 43.686C71.181 43.6804 75.2841 39.5772 75.2899 34.514L75.2899 34.2827C75.287 31.7417 73.2278 29.6824 70.6868 29.6796ZM47.5817 54.4863C47.388 54.6526 47.2766 54.8953 47.2765 55.1505L47.2765 61.2784C47.2765 61.7618 47.6684 62.1538 48.1519 62.1538L48.6772 62.1538C49.354 62.154 49.9025 62.703 49.9022 63.3798 49.9022 63.3799 49.9022 63.38 49.9022 63.3801L49.9022 63.9054C49.9005 64.8715 49.1175 65.654 48.1514 65.6553L45.6676 65.6553C44.9137 65.6561 44.2442 65.1736 44.0066 64.4581L42.8991 61.1365 42.8991 55.1505C42.8991 54.667 42.5072 54.2751 42.0237 54.2751L24.5156 54.2751C24.2836 54.2764 24.0614 54.3685 23.8965 54.5318L21.2702 57.158C21.1061 57.3221 21.0138 57.5448 21.0137 57.7769L21.0137 61.2785C21.0137 61.762 21.4057 62.1539 21.8892 62.1539L22.4144 62.1539C23.0913 62.1539 23.64 62.7026 23.64 63.3795L23.64 63.9057C23.6385 64.8719 22.8553 65.6546 21.8892 65.6556L19.405 65.6556C18.6512 65.6565 17.9818 65.1738 17.7444 64.4584L16.6369 61.1367 16.6369 55.946 16.6378 55.9417 16.6378 42.1473C16.6364 41.9153 16.5442 41.693 16.381 41.5281L11.8982 37.0453C11.2147 36.3622 11.2143 35.2543 11.8974 34.5708 11.8978 34.5704 11.8982 34.5699 11.8987 34.5695 12.5911 33.9079 13.6815 33.9079 14.374 34.5695L18.8568 39.0523C19.0217 39.2156 19.2439 39.3078 19.476 39.309L35.8967 39.309C38.3352 39.3158 40.6752 38.3466 42.3946 36.6174L43.0901 35.922 54.1673 46.9996C53.8204 47.7681 53.5898 48.5838 53.483 49.42ZM55.0839 45.4401 44.3279 34.6841 45.7162 33.2958 56.4192 43.9989C55.9207 44.427 55.4726 44.9105 55.0836 45.4401ZM73.5391 34.514C73.5343 38.6107 70.2145 41.9305 66.1178 41.9352L61.9866 41.9352C60.5513 41.9337 59.1389 42.2946 57.8802 42.9842L46.954 32.0573 47.8574 31.1539 52.3259 26.8207C53.2039 25.8504 54.1976 24.9918 55.2848 24.2637 55.2259 24.6648 55.185 24.9929 55.1612 25.2041 55.1011 25.6838 55.4412 26.1214 55.9209 26.1815 56.4006 26.2417 56.8383 25.9016 56.8984 25.4219 56.8993 25.4145 56.9002 25.4071 56.9009 25.3998 57.2788 22.0557 58.5554 17.4233 59.9704 17.4233 61.3854 17.4233 62.662 22.0559 63.0398 25.3998 63.0896 25.8421 63.4634 26.1766 63.9084 26.1773 63.9416 26.1774 63.9747 26.1756 64.0076 26.1718 64.488 26.1177 64.8335 25.6845 64.7795 25.2041 64.7533 24.972 64.7054 24.5941 64.6363 24.1365 66.7889 25.6039 68.1316 27.9936 68.2654 30.5954L68.3047 31.4298 70.6869 31.4298C72.2615 31.4315 73.5374 32.7075 73.5392 34.2821Z"
                          transform="matrix(1.01144 0 0 1 573 79.0366)"/>
                    <path d="M28.8926 60.423 28.8926 57.7767C28.8926 57.2932 28.5006 56.9013 28.0172 56.9013 27.5337 56.9013 27.1418 57.2932 27.1418 57.7767L27.1418 61.2784C27.1418 61.7618 27.5337 62.1538 28.0172 62.1538L28.5424 62.1538C29.2193 62.1538 29.768 62.7025 29.768 63.3793L29.7675 63.9055C29.7661 64.8717 28.9829 65.6544 28.0167 65.6555L26.4083 65.6555C25.9248 65.6555 25.5329 66.0474 25.5329 66.5309 25.5329 67.0144 25.9248 67.4063 26.4083 67.4063L28.0167 67.4063C29.949 67.4043 31.5152 65.839 31.5183 63.9068L31.5188 63.3815C31.5193 61.8725 30.391 60.6017 28.8926 60.4235Z"
                          transform="matrix(1.01144 0 0 1 573 79.0366)"/>
                    <path d="M66.5341 30.2015C66.5341 30.9267 65.9462 31.5146 65.221 31.5146 64.4958 31.5146 63.9079 30.9267 63.9079 30.2015 63.9079 29.4763 64.4958 28.8884 65.221 28.8884 65.9462 28.8884 66.5341 29.4763 66.5341 30.2015Z"
                          transform="matrix(1.01144 0 0 1 573 79.0366)"/>
                </g>
            </g>
        </g>
        <text fill="#156082" font-family="Aptos,Aptos_MSFontService,sans-serif" font-weight="400" font-size="24"
              transform="matrix(1 0 0 1.00046 195.083 146)">Merkmal:
        </text>
        <text fill="#156082" font-family="Aptos,Aptos_MSFontService,sans-serif" font-weight="400" font-size="24"
              transform="matrix(1 0 0 1.00046 195.083 175)">K칬rpergr칬른
        </text>
        <text font-family="Cambria Math,Cambria Math_MSFontService,sans-serif" font-weight="400" font-size="24"
              transform="matrix(1 0 0 1.00046 216.123 214)">洧녦
        </text>
        <text font-family="Cambria Math,Cambria Math_MSFontService,sans-serif" font-weight="400" font-size="24"
              transform="matrix(1 0 0 1.00046 256.224 214)">:
        </text>
        <text font-family="Cambria Math,Cambria Math_MSFontService,sans-serif" font-weight="400" font-size="24"
              transform="matrix(1 0 0 1.00046 266.56 214)">=
        </text>
        <text font-family="Cambria Math,Cambria Math_MSFontService,sans-serif" font-weight="400" font-size="24"
              transform="matrix(1 0 0 1.00046 308.575 214)">(
        </text>
        <text font-family="Cambria Math,Cambria Math_MSFontService,sans-serif" font-weight="400" font-size="24"
              transform="matrix(1 0 0 1.00046 350.982 214)">洧논
        </text>
        <text font-family="Cambria Math,Cambria Math_MSFontService,sans-serif" font-weight="400" font-size="18"
              transform="matrix(1 0 0 1.00046 363.033 219)">1
        </text>
        <text font-family="Cambria Math,Cambria Math_MSFontService,sans-serif" font-weight="400" font-size="24"
              transform="matrix(1 0 0 1.00046 406.608 214)">,
        </text>
        <text font-family="Cambria Math,Cambria Math_MSFontService,sans-serif" font-weight="400" font-size="24"
              transform="matrix(1 0 0 1.00046 437.072 214)">洧논
        </text>
        <text font-family="Cambria Math,Cambria Math_MSFontService,sans-serif" font-weight="400" font-size="18"
              transform="matrix(1 0 0 1.00046 449.676 219)">2
        </text>
        <text font-family="Cambria Math,Cambria Math_MSFontService,sans-serif" font-weight="400" font-size="24"
              transform="matrix(1 0 0 1.00046 486.302 214)">,
        </text>
        <text font-family="Cambria Math,Cambria Math_MSFontService,sans-serif" font-weight="400" font-size="24"
              transform="matrix(1 0 0 1.00046 516.765 214)">洧논
        </text>
        <text font-family="Cambria Math,Cambria Math_MSFontService,sans-serif" font-weight="400" font-size="18"
              transform="matrix(1 0 0 1.00046 529.37 219)">3
        </text>
        <text font-family="Cambria Math,Cambria Math_MSFontService,sans-serif" font-weight="400" font-size="24"
              transform="matrix(1 0 0 1.00046 565.995 214)">,
        </text>
        <text font-family="Cambria Math,Cambria Math_MSFontService,sans-serif" font-weight="400" font-size="24"
              transform="matrix(1 0 0 1.00046 596.459 214)">洧논
        </text>
        <text font-family="Cambria Math,Cambria Math_MSFontService,sans-serif" font-weight="400" font-size="18"
              transform="matrix(1 0 0 1.00046 609.063 219)">4
        </text>
        <text font-family="Cambria Math,Cambria Math_MSFontService,sans-serif" font-weight="400" font-size="24"
              transform="matrix(1 0 0 1.00046 645.689 214)">,
        </text>
        <text font-family="Cambria Math,Cambria Math_MSFontService,sans-serif" font-weight="400" font-size="24"
              transform="matrix(1 0 0 1.00046 676.153 214)">洧논
        </text>
        <text font-family="Cambria Math,Cambria Math_MSFontService,sans-serif" font-weight="400" font-size="18"
              transform="matrix(1 0 0 1.00046 688.757 219)">5
        </text>
        <text font-family="Cambria Math,Cambria Math_MSFontService,sans-serif" font-weight="400" font-size="24"
              transform="matrix(1 0 0 1.00046 725.383 214)">,
        </text>
        <text font-family="Cambria Math,Cambria Math_MSFontService,sans-serif" font-weight="400" font-size="24"
              transform="matrix(1 0 0 1.00046 755.846 214)">洧논
        </text>
        <text font-family="Cambria Math,Cambria Math_MSFontService,sans-serif" font-weight="400" font-size="18"
              transform="matrix(1 0 0 1.00046 768.451 219)">6
        </text>
        <text font-family="Cambria Math,Cambria Math_MSFontService,sans-serif" font-weight="400" font-size="24"
              transform="matrix(1 0 0 1.00046 805.076 214)">,
        </text>
        <text font-family="Cambria Math,Cambria Math_MSFontService,sans-serif" font-weight="400" font-size="24"
              transform="matrix(1 0 0 1.00046 835.54 214)">洧논
        </text>
        <text font-family="Cambria Math,Cambria Math_MSFontService,sans-serif" font-weight="400" font-size="18"
              transform="matrix(1 0 0 1.00046 848.144 219)">7
        </text>
        <text font-family="Cambria Math,Cambria Math_MSFontService,sans-serif" font-weight="400" font-size="24"
              transform="matrix(1 0 0 1.00046 884.77 214)">)
        </text>
        <text font-family="Cambria Math,Cambria Math_MSFontService,sans-serif" font-weight="400" font-size="24"
              transform="matrix(1 0 0 1.00046 221.499 244)"></text>
        <text font-family="Cambria Math,Cambria Math_MSFontService,sans-serif" font-weight="400" font-size="24"
              transform="matrix(1 0 0 1.00046 261.392 244)">=
        </text>
        <text font-family="Cambria Math,Cambria Math_MSFontService,sans-serif" font-weight="400" font-size="24"
              transform="matrix(1 0 0 1.00046 308.575 244)">(
        </text>
        <text font-family="Cambria Math,Cambria Math_MSFontService,sans-serif" font-weight="400" font-size="24"
              transform="matrix(1 0 0 1.00046 342.586 244)">106
        </text>
        <text font-family="Cambria Math,Cambria Math_MSFontService,sans-serif" font-weight="400" font-size="24"
              transform="matrix(1 0 0 1.00046 406.608 244)">,
        </text>
        <text font-family="Cambria Math,Cambria Math_MSFontService,sans-serif" font-weight="400" font-size="24"
              transform="matrix(1 0 0 1.00046 435.618 244)">30
        </text>
        <text font-family="Cambria Math,Cambria Math_MSFontService,sans-serif" font-weight="400" font-size="24"
              transform="matrix(1 0 0 1.00046 486.302 244)">,
        </text>
        <text font-family="Cambria Math,Cambria Math_MSFontService,sans-serif" font-weight="400" font-size="24"
              transform="matrix(1 0 0 1.00046 515.312 244)">84
        </text>
        <text font-family="Cambria Math,Cambria Math_MSFontService,sans-serif" font-weight="400" font-size="24"
              transform="matrix(1 0 0 1.00046 565.995 244)">,
        </text>
        <text font-family="Cambria Math,Cambria Math_MSFontService,sans-serif" font-weight="400" font-size="24"
              transform="matrix(1 0 0 1.00046 595.005 244)">35
        </text>
        <text font-family="Cambria Math,Cambria Math_MSFontService,sans-serif" font-weight="400" font-size="24"
              transform="matrix(1 0 0 1.00046 645.689 244)">,
        </text>
        <text font-family="Cambria Math,Cambria Math_MSFontService,sans-serif" font-weight="400" font-size="24"
              transform="matrix(1 0 0 1.00046 674.699 244)">30
        </text>
        <text font-family="Cambria Math,Cambria Math_MSFontService,sans-serif" font-weight="400" font-size="24"
              transform="matrix(1 0 0 1.00046 725.383 244)">,
        </text>
        <text font-family="Cambria Math,Cambria Math_MSFontService,sans-serif" font-weight="400" font-size="24"
              transform="matrix(1 0 0 1.00046 754.393 244)">30
        </text>
        <text font-family="Cambria Math,Cambria Math_MSFontService,sans-serif" font-weight="400" font-size="24"
              transform="matrix(1 0 0 1.00046 805.076 244)">,
        </text>
        <text font-family="Cambria Math,Cambria Math_MSFontService,sans-serif" font-weight="400" font-size="24"
              transform="matrix(1 0 0 1.00046 834.086 244)">84
        </text>
        <text font-family="Cambria Math,Cambria Math_MSFontService,sans-serif" font-weight="400" font-size="24"
              transform="matrix(1 0 0 1.00046 884.77 244)">)
        </text>
        <path d="M366.834 128.559 366.834 187.727 364.166 187.727 364.166 128.559ZM369.501 186.393 365.5 194.399 361.499 186.393Z"
              fill="#156082"/>
        <path d="M531.834 121.556 531.834 180.724 529.166 180.724 529.166 121.556ZM534.501 179.39 530.5 187.396 526.499 179.39Z"
              fill="#156082"/>
        <path d="M696.834 121.556 696.834 180.724 694.166 180.724 694.166 121.556ZM699.501 179.39 695.5 187.396 691.499 179.39Z"
              fill="#156082"/>
        <path d="M852.834 125.558 852.834 184.726 850.166 184.726 850.166 125.558ZM855.501 183.392 851.5 191.398 847.499 183.392Z"
              fill="#156082"/>
        <path d="M456.834 163.576 456.834 184.31 454.166 184.31 454.166 163.576ZM459.501 182.975 455.5 190.982 451.499 182.975Z"
              fill="#156082"/>
        <path d="M613.834 160.574 613.834 181.308 611.166 181.308 611.166 160.574ZM616.501 179.974 612.5 187.98 608.499 179.974Z"
              fill="#156082"/>
        <path d="M771.834 156.572 771.834 177.307 769.166 177.307 769.166 156.572ZM774.501 175.972 770.5 183.979 766.499 175.972Z"
              fill="#156082"/>
        <text font-family="Cambria Math,Cambria Math_MSFontService,sans-serif" font-weight="400" font-size="24"
              transform="matrix(1 0 0 1.00046 213.919 357)"></text>
        <text font-family="Cambria Math,Cambria Math_MSFontService,sans-serif" font-weight="400" font-size="24"
              transform="matrix(1 0 0 1.00046 249.598 357)"></text>
        <path d="M16 169.579C16 159.357 24.2828 151.07 34.5002 151.07L170.5 151.07C180.717 151.07 189 159.357 189 169.579L189 243.612C189 253.835 180.717 262.121 170.5 262.121L34.5002 262.121C24.2828 262.121 16 253.835 16 243.612Z"
              stroke="#0C445E" stroke-width="2.00068" stroke-miterlimit="8" fill="#156082" fill-rule="evenodd"/>
        <text fill="#FFFFFF" font-family="Aptos,Aptos_MSFontService,sans-serif" font-weight="400" font-size="21"
              transform="matrix(1 0 0 1.00046 53.3553 201)">Merkmals
        </text>
        <text fill="#FFFFFF" font-family="Aptos,Aptos_MSFontService,sans-serif" font-weight="400" font-size="21"
              transform="matrix(1 0 0 1.00046 144.219 201)">-
        </text>
        <text fill="#FFFFFF" font-family="Aptos,Aptos_MSFontService,sans-serif" font-weight="400" font-size="21"
              transform="matrix(1 0 0 1.00046 36.9964 226)">auspr칛gungen
        </text>

        <path d="M16 25.512C16 15.2899 24.2828 7.0032 34.5002 7.0032L170.5 7.0032C180.717 7.0032 189 15.2899 189 25.512L189 99.5457C189 109.768 180.717 118.055 170.5 118.055L34.5002 118.055C24.2828 118.055 16 109.768 16 99.5457Z"
              stroke="#0C445E" stroke-width="2.00068" stroke-miterlimit="8" fill="#156082" fill-rule="evenodd"/>
        <text fill="#FFFFFF" font-family="Aptos,Aptos_MSFontService,sans-serif" font-weight="400" font-size="21"
              transform="matrix(1 0 0 1.00046 53.3587 57)">Merkmals
        </text>
        <text fill="#FFFFFF" font-family="Aptos,Aptos_MSFontService,sans-serif" font-weight="400" font-size="21"
              transform="matrix(1 0 0 1.00046 144.223 57)">-
        </text>
        <text fill="#FFFFFF" font-family="Aptos,Aptos_MSFontService,sans-serif" font-weight="400" font-size="21"
              transform="matrix(1 0 0 1.00046 75.8463 82)">tr칛ger
        </text>
    </g>
</svg>