<svg width="1280" height="720" xmlns="http://www.w3.org/2000/svg" xmlns:xlink="http://www.w3.org/1999/xlink" overflow="hidden"><g><rect x="0" y="0" width="1280" height="720" fill="#FFFFFF"/><g><g><g><path d="M34.452 55.7906C34.422 55.7865 34.3916 55.7844 34.3612 55.7844L31.6388 55.7844C34.4398 53.7474 36.1015 50.4967 36.1123 47.0333 36.1123 42.339 35.0921 40.2758 31.9137 38.5419 31.5849 38.3523 31.1644 38.4651 30.9747 38.794 30.785 39.1229 30.8978 39.5433 31.2267 39.733 31.2361 39.7384 31.2456 39.7435 31.2551 39.7485 33.9886 41.2404 34.7373 42.8065 34.7373 47.036 34.7373 51.7248 31.625 54.4301 29.0139 55.8731 28.6817 56.057 28.5614 56.4753 28.7451 56.8075 28.8662 57.0263 29.0966 57.1622 29.3466 57.1622L34.3111 57.1622C35.0278 57.2888 35.5156 57.9601 35.4145 58.6809 35.2857 59.3621 34.6823 59.8496 33.9893 59.8324L24.6283 59.8324C24.3313 59.8324 22.9721 59.3038 21.7442 56.7188 21.7442 56.7119 21.7346 56.7084 21.7312 56.7016 21.7074 56.6622 21.6798 56.6254 21.6487 56.5916 21.6227 56.5543 21.5929 56.5197 21.56 56.4884 21.5545 56.4836 21.5518 56.4761 21.5456 56.4712 21.3813 56.3434 21.1922 56.1997 20.9832 56.0409 18.4119 54.0856 13.0625 50.0239 13.0625 44 13.0625 40.4628 14.5248 37.7829 15.9397 35.1911 16.0999 34.8968 16.2594 34.6053 16.4147 34.3145 19.4157 28.7155 19.0362 23.1832 15.3993 19.5147 15.1365 19.2406 14.7014 19.2314 14.4273 19.4942 14.1531 19.757 14.144 20.1922 14.4068 20.4663 14.4121 20.4718 14.4176 20.4773 14.4231 20.4827 17.6591 23.7469 17.9438 28.5519 15.2034 33.6648 15.0485 33.9522 14.8915 34.2414 14.7324 34.5324 13.3052 37.1477 11.6875 40.1122 11.6875 44 11.6875 50.7059 17.6186 55.2097 20.1513 57.1312 20.3129 57.2536 20.4517 57.3602 20.5872 57.4647 21.8563 60.038 23.5201 61.2026 24.6283 61.2026L33.9893 61.2026C35.3741 61.2263 36.5641 60.2247 36.7771 58.8562 36.9781 57.3685 35.9388 55.9982 34.452 55.7906Z" transform="matrix(1.01515 0 0 1 733 71)"/><path d="M45.1 40.4841C45.1 40.5013 44.8518 42.2235 42.8065 45.6218 42.6931 45.8102 42.4627 46.2076 42.4627 46.2076 42.3908 46.3137 42.3508 46.4382 42.3473 46.5664L42.3473 56.375C42.3473 56.7547 42.655 57.0625 43.0348 57.0625L43.6446 57.0625C44.3358 57.0468 44.9393 57.5278 45.078 58.2051 45.2064 58.9536 44.7037 59.6644 43.9552 59.7927 43.8791 59.8058 43.8021 59.8124 43.725 59.8125L40.9248 59.8125C40.1654 59.8125 39.5498 59.1969 39.5498 58.4375L39.5498 49.7702C39.5498 49.3905 39.242 49.0827 38.8623 49.0827 38.4826 49.0827 38.1748 49.3905 38.1748 49.7702L38.1748 58.4375C38.1748 59.9563 39.4061 61.1875 40.9248 61.1875L43.5999 61.1875C45.0446 61.212 46.2764 60.1458 46.4592 58.7125 46.6092 57.1992 45.504 55.8509 43.9907 55.7009 43.9024 55.6922 43.8138 55.6877 43.725 55.6875L43.725 46.7603C46.0852 42.9543 46.4317 40.9227 46.4667 40.6698 46.7967 39.1143 46.938 37.5248 46.8875 35.9356L46.8875 35.5719C46.9409 33.5382 46.652 31.5101 46.0329 29.5721 45.7111 28.6692 45.5441 27.7182 45.5393 26.7596 45.583 25.6415 46.5184 24.7668 47.6369 24.7981 50.9532 24.7339 53.6118 22.0341 53.625 18.7172 53.6394 18.1382 53.4536 17.572 53.0991 17.1139L47.5585 9.06538 47.5585 6.92244C47.5726 6.42074 47.3189 5.9494 46.8923 5.68494 46.3664 5.37291 45.697 5.45026 45.2561 5.874L35.9562 14.575C34.7422 15.7215 34.0541 17.3175 34.0539 18.9874L34.0539 19.3916C34.0539 21.1234 32.1502 22.6676 29.7399 24.6221 25.0181 28.4522 18.5508 33.6971 18.5508 45.6851 18.5133 47.8286 18.6757 49.9709 19.0355 52.0843 19.0974 52.408 19.3804 52.6421 19.7099 52.6426 19.7538 52.6426 19.7976 52.6382 19.8406 52.6295 20.2131 52.5577 20.4571 52.1978 20.3857 51.8251 20.0427 49.7971 19.8887 47.7416 19.9258 45.6851 19.9258 34.3523 26.0989 29.3459 30.6061 25.6905 33.3004 23.5049 35.4289 21.7786 35.4289 19.3916L35.4289 18.9874C35.428 17.6977 35.9588 16.4647 36.8961 15.5787L46.1773 6.86263C46.18 6.85996 46.1844 6.86001 46.187 6.86272 46.1882 6.86398 46.189 6.86567 46.189 6.86744L46.189 9.28125C46.1891 9.42054 46.2316 9.55646 46.3107 9.67106L52.0018 17.9355C52.4384 18.4814 52.3002 19.3105 51.6711 20.6607 50.9019 22.2905 49.2904 23.3574 47.4897 23.4293 45.6706 23.4697 44.206 24.9356 44.1671 26.7547 44.1709 27.8501 44.3567 28.9372 44.7171 29.9716 45.2985 31.7796 45.5675 33.6735 45.5125 35.5719L45.5125 35.9418C45.5617 37.44 45.4292 38.9387 45.1179 40.4051Z" transform="matrix(1.01515 0 0 1 733 71)"/><path d="M48.1243 14.7812C48.1243 15.3508 47.6626 15.8125 47.0931 15.8125 46.5235 15.8125 46.0618 15.3508 46.0618 14.7812 46.0618 14.2117 46.5235 13.75 47.0931 13.75 47.6626 13.75 48.1243 14.2117 48.1243 14.7812Z" transform="matrix(1.01515 0 0 1 733 71)"/></g></g></g><g><g><g><path d="M62.0812 19.4104 55.3438 9.625 55.3438 6.7375C55.3438 6.01562 54.4615 5.69479 53.9802 6.17604L42.9115 16.5229C41.6281 17.726 40.9062 19.4104 40.9062 21.175L40.9062 21.6562C40.9062 28.474 22.4583 31.2812 22.4583 52.9375 22.4583 55.825 22.6187 58.3115 23.0198 60.3969 22.8594 60.2365 22.699 60.076 22.4583 59.9156 20.6135 58.151 18.4479 54.2208 18.4479 45.7188 18.4479 42.751 19.8917 39.7031 21.3354 36.8156 23.5812 32.1635 26.1479 26.8698 21.7365 22.3781 20.774 21.4156 19.25 21.4156 18.3677 22.3781 17.4052 23.3406 17.4052 24.8646 18.3677 25.7469 20.2125 27.5917 19.4104 29.7573 17.0844 34.65 15.4 37.9385 13.6354 41.7083 13.6354 45.7188 13.6354 53.9802 15.5604 59.9958 19.25 63.525 21.175 65.3698 23.2604 66.0917 24.7042 66.4125 26.2281 69.6208 28.0729 70.5833 28.875 70.5833L38.5 70.5833C39.8635 70.5833 40.9062 69.5406 40.9062 68.1771 40.9062 66.974 40.024 65.9312 38.8208 65.7708L36.0938 65.7708C39.1417 64.0865 41.7083 60.6375 41.7083 54.5417 41.7083 49.2479 40.6656 47.0823 37.1365 45.1573 36.575 44.8365 36.3344 44.1146 36.6552 43.5531 36.976 42.9917 37.6979 42.751 38.2594 43.0719 43.1521 45.6385 44.1146 49.2479 44.1146 54.5417 44.1146 57.4292 43.5531 59.9958 42.5104 62.1615L42.5104 68.1771C42.5104 69.5406 43.5531 70.5833 44.9167 70.5833 46.2802 70.5833 47.3229 69.5406 47.3229 68.1771L47.3229 60.7979C47.8844 60.1562 48.4458 59.4344 48.9271 58.6323L48.9271 68.1771C48.9271 69.5406 49.9698 70.5833 51.3333 70.5833 52.6969 70.5833 53.7396 69.5406 53.7396 68.1771L53.7396 46.8417C54.301 44.4354 54.5417 42.35 54.5417 40.9062 54.5417 34.5698 52.9375 33.9281 52.9375 30.4792 52.9375 28.7146 54.3813 27.2708 56.1458 27.2708 59.675 27.2708 62.5625 24.3833 62.5625 20.8542 62.5625 20.2927 62.4021 19.8115 62.0812 19.4104Z" transform="matrix(1.01299 0 0 1 493 120)"/></g></g></g><g><g><g><path d="M63.9049 40.486 59.7117 39.009C59.3236 38.8643 58.8917 39.0616 58.747 39.4497 58.6022 39.8378 58.7995 40.2698 59.1877 40.4145 59.1963 40.4177 59.205 40.4207 59.2137 40.4237L63.3877 41.8937C64.1597 42.1946 64.5415 43.0643 64.2406 43.8363 63.9396 44.6083 63.0699 44.9901 62.2979 44.6891L57.4408 42.9697C57.0504 42.8314 56.6218 43.0358 56.4834 43.4262 56.345 43.8167 56.5494 44.2453 56.9398 44.3837L61.7794 46.097C63.328 46.6857 65.0609 45.9076 65.6497 44.3588 66.2384 42.8102 65.4602 41.0773 63.9116 40.4886 63.9093 40.4877 63.9071 40.4869 63.9049 40.486Z" transform="matrix(1 0 0 1.01389 800 124)"/><path d="M66.8675 26.0753 66.5815 25.7893 66.8404 21.9895C66.936 20.6429 66.4887 19.3141 65.5982 18.2995 64.8518 17.3957 63.8687 16.7171 62.7589 16.3395L62.7589 13.515C62.7589 12.6866 62.0873 12.015 61.2589 12.015 60.8858 12.015 60.5261 12.1541 60.25 12.405L57.375 15.0172C57.3563 15.0341 57.3384 15.0519 57.3215 15.0707 57.1523 15.2593 56.9453 15.4105 56.714 15.5145L55.154 16.2206C53.0713 17.1586 51.3337 18.7241 50.1842 20.6981L46.905 26.3073C46.4733 27.0419 45.721 27.5305 44.8743 27.626L40.5263 28.1068C37.5571 28.4851 34.7208 29.5655 32.2525 31.2585L29.4155 33.209C27.3224 34.6334 25.5875 36.5228 24.3463 38.7295 23.878 39.5363 23.5397 40.4119 23.3438 41.3239 20.4659 45.5006 13.2787 47.3454 5.38875 45.9109 4.9814 45.8359 4.5903 46.1052 4.51519 46.5125 4.44008 46.9198 4.70942 47.311 5.11677 47.3861 5.11807 47.3864 5.11939 47.3866 5.1207 47.3868 6.90838 47.7151 8.72198 47.8823 10.5395 47.8863 15.7395 47.8863 20.2879 46.441 23.1102 43.8526 23.1073 44.0272 23.1027 44.1935 23.1027 44.3811 23.1027 48.0224 24.6927 49.5711 26.0957 50.9379 27.3061 52.1175 28.352 53.1365 28.352 55.5 28.3539 57.1561 29.6959 58.4981 31.352 58.5L41.102 58.5C42.7589 58.5 44.102 57.1568 44.102 55.5 44.102 53.8432 42.7589 52.5 41.102 52.5L38.7368 52.5C39.3491 52.0035 39.8702 51.4042 40.277 50.729 41.8249 50.5706 47.5577 49.88 50.3578 48.1142L55.8387 53.4767C57.0221 54.6368 58.9219 54.6179 60.082 53.4345 60.1313 53.3842 60.1788 53.3322 60.2244 53.2786 61.2385 52.0308 61.12 50.2124 59.9527 49.1067L55.7508 44.9864C55.5096 44.7493 55.4566 44.3803 55.6215 44.085L58.6307 38.704C59.2115 37.6676 59.5789 36.5254 59.711 35.3447L60.0732 32.1374C60.1067 31.8399 60.3583 31.6152 60.6577 31.6154L62.3625 31.6154C63.3269 31.6133 64.2655 31.3051 65.0434 30.735L66.602 29.5875C67.6348 28.8268 67.8554 27.3728 67.0947 26.34 67.0257 26.2463 66.9497 26.158 66.8675 26.0757ZM58.5825 31.9688 58.4574 33.0762 48.6464 26.3006 49.2558 25.258 58.6317 31.7334C58.6108 31.8108 58.5944 31.8894 58.5825 31.9688ZM57.3212 37.9719 54.3121 43.3528C53.8181 44.2391 53.9772 45.3461 54.7006 46.0574L58.9022 50.1773C59.4994 50.7349 59.5775 51.6541 59.083 52.3045 58.5134 52.9379 57.5383 52.9895 56.9049 52.42 56.8992 52.4149 56.8936 52.4098 56.888 52.4046L47.8582 43.5706C47.5621 43.281 47.0872 43.2863 46.7976 43.5825 46.5079 43.8786 46.5132 44.3535 46.8094 44.6432L49.245 47.0261C47.18 48.1684 43.3306 48.8485 40.979 49.1402 41.5186 47.3102 41.2549 45.3371 40.2535 43.7129 40.0364 43.3602 39.5743 43.2504 39.2215 43.4676 38.8688 43.6848 38.759 44.1469 38.9762 44.4996 40.4945 46.9706 39.7222 50.2046 37.2512 51.7229 36.4247 52.2308 35.4736 52.4997 34.5036 52.5L34.352 52.5C33.9378 52.5 33.602 52.8358 33.602 53.25 33.602 53.6642 33.9378 54 34.352 54L41.102 54C41.9305 54 42.602 54.6716 42.602 55.5 42.602 56.3284 41.9305 57 41.102 57L31.352 57C30.524 56.9991 29.8529 56.3281 29.852 55.5 29.852 52.5037 28.412 51.1011 27.1417 49.8634 25.8358 48.5912 24.602 47.3895 24.602 44.381 24.602 41.9879 24.8195 40.9752 25.6595 39.4549 26.7875 37.4519 28.3638 35.7371 30.265 34.4449L33.102 32.4944C35.3696 30.9388 37.9749 29.9454 40.7025 29.5964L45.0388 29.1169C46.1414 28.9909 47.1497 28.4351 47.8447 27.57L58.2667 34.7675 58.2206 35.1762C58.1105 36.1588 57.8047 37.1093 57.3214 37.9719ZM65.7126 28.3794 64.1541 29.5269C63.635 29.9092 63.0072 30.1154 62.3625 30.1154L60.6577 30.1154C60.2335 30.1167 59.8199 30.2481 59.4727 30.4918L50.015 23.9597 51.4797 21.4547C52.4752 19.7521 53.975 18.4007 55.7719 17.5875L57.3329 16.8811C57.7408 16.6973 58.1072 16.4328 58.41 16.1034L61.2462 13.5264C61.2493 13.5236 61.254 13.5238 61.2568 13.5269 61.258 13.5283 61.2587 13.5301 61.2587 13.5319L61.2587 16.8844C61.259 17.217 61.478 17.5098 61.797 17.604 62.8417 17.8594 63.7757 18.4459 64.4595 19.2759 65.0893 19.9943 65.4076 20.9338 65.3439 21.8871L65.0784 25.7803C65.0529 26.1537 65.1902 26.5198 65.4549 26.7842L65.8064 27.1357C66.1275 27.4569 66.1274 27.9776 65.8062 28.2987 65.7771 28.3278 65.7458 28.3546 65.7127 28.3791Z" transform="matrix(1 0 0 1.01389 800 124)"/><path d="M63.7528 22.875C63.7528 23.4963 63.2492 24 62.6278 24 62.0065 24 61.5028 23.4963 61.5028 22.875 61.5028 22.2537 62.0065 21.75 62.6278 21.75 63.2492 21.75 63.7528 22.2537 63.7528 22.875Z" transform="matrix(1 0 0 1.01389 800 124)"/></g></g></g><g><g><g><path d="M129.594 41.0833C128.385 35.7969 123.552 31.7188 117.812 31.7188L109.505 31.7188 107.844 41.3854C107.693 42.2917 107.693 43.349 108.146 44.2552 108.75 45.6146 110.109 46.5208 111.469 46.8229 112.979 47.125 114.49 46.6719 115.547 45.4635 116.151 44.7083 116.604 43.8021 116.755 42.8958L117.812 37.1562C117.964 36.401 118.719 35.7969 119.625 35.9479 120.38 36.099 120.984 36.8542 120.833 37.7604L119.927 43.349C119.625 45.4635 118.417 47.4271 116.604 48.6354 115.396 49.5417 113.885 49.8438 112.375 49.8438 111.922 49.8438 111.469 49.8438 111.016 49.6927 108.75 49.2396 106.938 48.0312 105.729 46.0677 104.823 44.4062 104.521 42.5938 104.823 40.7812L106.182 32.776 95.6094 44.4062C93.4948 46.8229 90.1719 48.3333 86.849 48.3333L43.8021 48.3333C39.875 48.3333 36.25 49.8438 33.5312 52.4115 28.3958 51.5052 19.7865 48.7865 14.651 40.1771 13.4427 38.0625 10.724 37.1562 8.60937 38.2135 6.19271 39.4219 5.4375 42.2917 6.79688 44.5573 12.8385 54.8281 22.2031 58.9062 29.151 60.7188 28.849 61.625 28.6979 62.5312 28.6979 63.4375L28.6979 108.599C28.6979 110.865 30.2083 112.828 32.3229 113.281 35.1927 113.885 37.7604 111.62 37.7604 108.901L37.7604 80.0521 58.3021 80.0521C61.474 82.7708 67.2135 84.5833 74.0104 84.5833 74.0104 84.5833 76.5781 84.5833 80.0521 84.5833L80.0521 108.448C80.0521 110.865 81.8646 113.13 84.2812 113.281 86.849 113.432 89.1146 111.318 89.1146 108.75L89.1146 84.5833 95.1562 84.5833 95.1562 108.599C95.1562 110.865 96.6667 112.828 98.7812 113.281 101.651 113.885 104.219 111.62 104.219 108.901L104.219 80.8073C107.844 76.276 110.26 69.4792 110.26 69.4792L116.302 54.375 129.896 54.375C134.88 54.375 138.958 50.2969 138.958 45.3125L129.594 41.0833Z" transform="matrix(1 0 0 1.0069 375 37)"/><path d="M43.8021 107.24C43.8021 109.807 45.7656 111.771 48.3333 111.771 50.901 111.771 52.8646 109.807 52.8646 107.24L52.8646 81.5625 43.8021 81.5625 43.8021 107.24Z" transform="matrix(1 0 0 1.0069 375 37)"/></g></g></g><g><g><g><path d="M122.261 38.3791 114.634 34.9343C113.129 29.8655 108.482 26.3799 103.195 26.3525L97.8679 26.3525 96.6826 26.3841C94.5477 26.4466 92.5269 27.3623 91.0725 28.9264L82.7513 37.9197C81.0416 39.8063 78.6195 40.8904 76.0734 40.9086L36.4751 40.9086C31.916 40.9134 27.7129 43.3727 25.475 47.3448 18.3893 47.8819 9.04968 42.7182 6.43943 34.0155 6.22948 33.3155 5.49188 32.9184 4.79193 33.1282 4.09199 33.3382 3.69477 34.0758 3.90472 34.7758 6.76487 44.31 16.3146 49.9996 24.3427 50.0436 24.0132 51.174 23.8446 52.3453 23.8421 53.5228L23.8157 65.9832 21.2138 76.4274C21.1873 76.5319 21.1739 76.6393 21.1741 76.7472L21.1741 87.3125C21.1743 87.4207 21.1876 87.5285 21.2138 87.6336L23.1083 95.2099C23.6942 97.5672 25.8121 99.2213 28.2412 99.2184L34.3978 99.2184C35.1281 99.2184 35.7202 98.6266 35.7207 97.8964L35.7232 94.4586C35.7243 92.1794 34.0209 90.2594 31.7578 89.9889L31.7578 79.9231 41.5704 70.1094 50.6016 70.0247C53.7854 72.515 59.05 73.9899 64.8274 73.9899L74.0905 73.9899 74.0905 87.3125C74.0907 87.4207 74.104 87.5285 74.1302 87.6336L76.0247 95.2099C76.6106 97.5672 78.7285 99.2213 81.1576 99.2184L87.3142 99.2184C88.0445 99.2184 88.6366 98.6266 88.6371 97.8964L88.6396 94.4586C88.6407 92.1794 86.9373 90.2594 84.6742 89.9889L84.6742 73.9151C86.5366 73.5929 88.3278 72.9455 89.9659 72.0024L89.9659 91.2812C89.9659 92.0119 90.5581 92.6042 91.2888 92.6042L92.0794 92.6042C93.1022 92.6042 93.9314 93.4334 93.9314 94.4562 93.9314 94.4565 93.9314 94.4568 93.9314 94.457L93.9308 96.5729 91.2889 96.5729C90.5583 96.5729 89.966 97.1652 89.966 97.8958 89.966 98.6265 90.5583 99.2188 91.2889 99.2188L95.2525 99.2188C95.9828 99.2188 96.5749 98.627 96.5754 97.8968L96.5779 94.459C96.579 92.1798 94.8756 90.2598 92.6125 89.9893L92.6125 69.809C94.6363 67.1433 96.3774 64.2743 97.8079 61.2485L102.767 48.8471 113.778 48.8471C118.89 48.8405 123.033 44.6973 123.038 39.5848 123.038 39.0651 122.734 38.5933 122.261 38.3791ZM113.778 46.2013 101.871 46.2013C101.33 46.2011 100.843 46.5305 100.642 47.033L95.3771 60.2069C93.9924 63.1186 92.3046 65.8764 90.342 68.4345 88.3599 70.1588 85.8818 71.2098 83.2644 71.4363 82.5698 71.4837 82.0304 72.0602 82.0293 72.7563L82.0293 91.2812C82.0293 92.0119 82.6216 92.6042 83.3522 92.6042L84.1428 92.6042C85.1657 92.6042 85.9949 93.4334 85.9949 94.4562 85.9949 94.4565 85.9949 94.4568 85.9949 94.457L85.9933 96.5729 81.1584 96.5729C79.9439 96.5745 78.8847 95.7474 78.592 94.5686L76.7368 87.1498 76.7368 72.667C76.7368 71.9364 76.1446 71.3441 75.4139 71.3441L64.8279 71.3441C59.4181 71.3441 54.596 69.9792 51.9295 67.6928 51.6862 67.4852 51.3763 67.372 51.0564 67.3744L41.0058 67.4688C40.6592 67.4719 40.3277 67.6111 40.0827 67.8564L29.4993 78.4397C29.2513 78.6877 29.1118 79.0242 29.1118 79.375L29.1118 91.2812C29.1118 92.0119 29.7041 92.6042 30.4348 92.6042L31.2253 92.6042C32.2482 92.6042 33.0774 93.4334 33.0774 94.4562 33.0774 94.4565 33.0774 94.4568 33.0774 94.457L33.0766 96.5729 28.2418 96.5729C27.0272 96.5745 25.9681 95.7474 25.6753 94.5686L23.8202 87.1498 23.8202 76.9104 26.4221 66.466C26.4485 66.3615 26.4618 66.254 26.4618 66.1462L26.4618 55.4821 26.4882 53.5413C26.4946 48.0282 30.9622 43.5606 36.4753 43.5543L76.0734 43.5543C79.3725 43.5496 82.5145 42.1447 84.7176 39.6891L93.0143 30.7233C93.3737 30.3318 93.8019 30.01 94.2778 29.7734L93.8494 36.1035C93.6342 39.3091 96.0542 42.0841 99.2594 42.3069L99.5239 42.325C99.6595 42.3344 99.7947 42.3388 99.9296 42.3382 102.987 42.3337 105.52 39.9646 105.728 36.9143L105.963 33.4826C106.024 32.7546 105.484 32.1147 104.756 32.0533 104.028 31.9921 103.388 32.5325 103.326 33.2606 103.325 33.2745 103.324 33.2884 103.323 33.3023L103.089 36.734C102.97 38.4834 101.455 39.8048 99.7052 39.6854 99.705 39.6854 99.7049 39.6854 99.7048 39.6854L99.4402 39.6673C97.6918 39.5456 96.3717 38.0319 96.4888 36.2831L96.9847 29.0274 103.195 28.9974C107.501 29.0171 111.233 31.9835 112.224 36.174 112.316 36.5775 112.592 36.9145 112.969 37.0848L120.341 40.4151C119.919 43.7195 117.109 46.1968 113.778 46.2013Z" transform="matrix(-1 0 0 1.00787 993 42)"/><path d="M39.6958 89.9893 39.6958 76.7292C39.6958 75.9985 39.1036 75.4062 38.3729 75.4062 37.6423 75.4062 37.05 75.9985 37.05 76.7292L37.05 91.2812C37.05 92.0119 37.6423 92.6042 38.3729 92.6042L39.1635 92.6042C40.1864 92.6042 41.0156 93.4334 41.0156 94.4562 41.0156 94.4565 41.0156 94.4568 41.0156 94.457L41.0141 96.5729 38.3723 96.5729C37.6416 96.5729 37.0493 97.1652 37.0493 97.8958 37.0493 98.6265 37.6416 99.2188 38.3723 99.2188L42.3358 99.2188C43.0661 99.2188 43.6582 98.627 43.6588 97.8968L43.6613 94.459C43.6623 92.1798 41.9589 90.2598 39.6958 89.9893Z" transform="matrix(-1 0 0 1.00787 993 42)"/><path d="M111.13 37.7031C111.13 38.7991 110.242 39.6875 109.146 39.6875 108.05 39.6875 107.161 38.7991 107.161 37.7031 107.161 36.6072 108.05 35.7188 109.146 35.7188 110.242 35.7188 111.13 36.6072 111.13 37.7031Z" transform="matrix(-1 0 0 1.00787 993 42)"/></g></g></g><g><g><g><path d="M37.5833 73.3333 35.2917 73.3333C33 74.7083 30.4792 75.625 27.8438 76.0833L27.8438 76.7708C27.8438 78.7188 29.3333 80.2083 31.2812 80.2083L37.5833 80.2083C39.5312 80.2083 41.0208 78.7188 41.0208 76.7708 41.0208 74.8229 39.5312 73.3333 37.5833 73.3333Z" transform="matrix(1.00909 0 0 1 560 49)"/><path d="M64.2812 49.3854C60.9583 50.4167 57.4062 49.6146 55 47.0938L46.1771 39.0729C39.5312 33.1146 29.4479 32.7708 22.4583 38.3854 19.5938 34.9479 20.0521 29.9063 23.4896 27.0417 24.9792 25.7812 26.8125 25.2083 28.6458 25.2083 30.5938 25.2083 32.0833 23.7188 32.0833 21.7708 32.0833 19.8229 30.5938 18.3333 28.6458 18.3333 20.3958 18.3333 13.75 24.9792 13.75 33.2292 13.75 37.2396 15.3542 41.1354 18.2188 43.8854 16.7292 47.4375 16.9583 51.4479 18.7917 54.7708L20.2813 57.6354C21.4271 59.6979 22.2292 61.9896 22.5729 64.3958L22.6875 65.4271C22.6875 65.7708 22.8021 66 22.6875 66.3438L18.5625 70.4688C17.875 71.1562 17.5312 71.9583 17.5312 72.875L17.5312 83.6458C17.5312 85.5938 19.0208 87.0833 20.9688 87.0833L27.2708 87.0833C29.2188 87.0833 30.7083 85.5938 30.7083 83.6458 30.7083 81.6979 29.2188 80.2083 27.2708 80.2083L24.4062 80.2083 24.4062 74.1354C29.5625 74.1354 34.4896 71.9583 38.0417 68.1771L40.9063 71.9583C43.8854 75.9688 48.3542 78.7188 53.2812 79.2917 55.1146 79.4063 56.6042 80.4375 57.4062 82.1562L58.2083 83.9896C58.4375 85.4792 59.4688 86.625 60.8438 86.9688L81.4688 91.5521C83.3021 91.8958 85.1354 90.75 85.5938 88.9167 85.9375 87.0833 84.7917 85.25 82.9583 84.9062L71.0417 82.1562 72.0729 79.1771 87.5417 81.3542C89.375 81.5833 91.0938 80.2083 91.3229 78.375 91.5521 76.5417 90.2917 74.8229 88.4583 74.5938L74.25 72.6458 74.25 72.4167 74.25 72.3021 79.75 65.8854 85.8229 68.5208C90.1771 70.4688 95.3333 68.5208 97.2813 64.1667L97.3958 63.8229 93.5 59.125C94.3021 53.9688 91.6667 48.9271 86.8542 46.8646L82.6146 45.4896C81.5833 45.1458 80.6667 45.0312 79.6354 45.0312L79.0625 45.0312C78.9479 45.0312 78.7188 45.0312 78.6042 45.0312L76.0833 49.9583C75.7396 50.5312 75.625 51.2188 75.7396 51.9062 75.8542 52.9375 76.5417 53.9688 77.5729 54.4271 77.8021 54.5417 78.0312 54.6563 78.2604 54.6563 79.0625 54.8854 79.9792 54.6563 80.6667 54.3125 81.2396 53.9688 81.6979 53.3958 82.0417 52.8229 82.2708 52.25 82.9583 52.0208 83.5313 52.25 84.1042 52.4792 84.3333 53.1667 84.1042 53.7396 84.1042 53.7396 84.1042 53.7396 84.1042 53.7396 83.6458 54.6563 82.8438 55.5729 81.9271 56.1458 81.0104 56.7188 80.0938 56.9479 79.0625 57.0625 78.6042 57.0625 78.2604 57.0625 77.8021 56.9479 77.3438 56.8333 76.8854 56.7188 76.5417 56.4896 74.9375 55.5729 73.9062 54.0833 73.5625 52.25 73.4479 51.1042 73.6771 49.9583 74.1354 48.9271L75.8542 45.6042C75.625 45.7188 75.3958 45.7188 75.0521 45.8333L64.2812 49.3854ZM74.1354 67.2604 64.7396 52.7083C64.7396 52.7083 64.8542 52.7083 64.8542 52.7083 65.0833 52.5938 65.4271 52.4792 65.6562 52.3646L68.1771 51.5625 76.5417 64.5104 74.1354 67.2604Z" transform="matrix(1.00909 0 0 1 560 49)"/></g></g></g><g><g><g><path d="M719.654 150.666 718.907 150.666C718.448 147.262 716.289 144.326 713.178 142.872 712.534 140.074 711.274 136.666 708.943 136.666 706.565 136.666 705.301 140.213 704.669 143.04 702.923 143.917 701.359 145.117 700.06 146.577L695.608 150.893 690.138 156.363C688.746 157.762 686.853 158.546 684.88 158.541L668.829 158.541 664.605 154.316C663.22 152.993 661.04 152.993 659.656 154.316 658.289 155.682 658.288 157.897 659.654 159.264 659.655 159.264 659.655 159.265 659.656 159.265L663.88 163.49 663.88 172.621 663.879 172.625 663.879 182.25C663.879 182.344 663.894 182.438 663.924 182.527L665.076 185.982C665.551 187.412 666.889 188.377 668.396 188.375L670.879 188.375C672.81 188.373 674.376 186.808 674.379 184.877L674.379 184.351C674.379 182.843 673.251 181.573 671.754 181.395L671.754 179.112 673.867 177 690.129 177 690.129 182.25C690.129 182.344 690.144 182.438 690.174 182.527L691.326 185.982C691.801 187.412 693.139 188.377 694.646 188.375L697.129 188.375C699.061 188.372 700.626 186.808 700.629 184.876L700.629 184.351C700.63 182.843 699.502 181.573 698.004 181.395L698.004 176.527 702.38 172.771 702.38 176.914 702.379 176.916 702.379 182.25C702.379 182.733 702.771 183.125 703.254 183.125L703.779 183.125C704.456 183.125 705.004 183.673 705.004 184.35L705.004 184.876C705.002 185.842 704.219 186.624 703.254 186.625L701.646 186.625C701.163 186.625 700.771 187.017 700.771 187.5 700.771 187.983 701.163 188.375 701.646 188.375L703.254 188.375C705.185 188.372 706.75 186.808 706.754 184.877L706.755 184.351C706.755 182.843 705.627 181.574 704.13 181.395L704.13 176.916 704.13 176.916 704.13 171.494C704.134 167.724 707.189 164.67 710.958 164.666L715.087 164.666C720.148 164.66 724.249 160.559 724.255 155.498L724.255 155.267C724.252 152.727 722.194 150.669 719.654 150.666ZM696.56 175.461C696.366 175.627 696.255 175.87 696.255 176.125L696.255 182.25C696.255 182.733 696.646 183.125 697.13 183.125L697.655 183.125C698.331 183.125 698.879 183.674 698.879 184.351 698.879 184.351 698.879 184.351 698.879 184.351L698.879 184.876C698.877 185.841 698.095 186.624 697.129 186.625L694.646 186.625C693.893 186.626 693.224 186.143 692.986 185.428L691.879 182.108 691.879 176.125C691.879 175.642 691.488 175.25 691.004 175.25L673.504 175.25C673.272 175.251 673.05 175.343 672.885 175.507L670.26 178.132C670.096 178.296 670.004 178.518 670.004 178.75L670.004 182.25C670.004 182.733 670.396 183.125 670.879 183.125L671.404 183.125C672.081 183.125 672.629 183.674 672.629 184.35L672.629 184.876C672.628 185.842 671.845 186.624 670.879 186.625L668.396 186.625C667.643 186.626 666.973 186.144 666.736 185.429L665.629 182.108 665.629 176.92 665.63 176.916 665.63 163.128C665.629 162.896 665.537 162.674 665.373 162.509L660.893 158.028C660.21 157.345 660.209 156.238 660.892 155.555 660.892 155.554 660.893 155.554 660.893 155.553 661.585 154.892 662.675 154.892 663.367 155.553L667.848 160.034C668.013 160.197 668.235 160.29 668.467 160.291L684.88 160.291C687.318 160.298 689.656 159.329 691.375 157.6L692.07 156.905 703.142 167.978C702.796 168.746 702.565 169.561 702.458 170.397ZM704.058 166.419 693.307 155.668 694.695 154.28 705.393 164.979C704.895 165.406 704.447 165.89 704.058 166.419ZM722.505 155.498C722.5 159.593 719.182 162.911 715.087 162.916L710.958 162.916C709.523 162.914 708.112 163.275 706.853 163.964L695.932 153.042 696.835 152.139 701.302 147.808C702.179 146.838 703.173 145.98 704.259 145.252 704.2 145.653 704.159 145.981 704.136 146.192 704.076 146.672 704.416 147.109 704.895 147.169 705.375 147.23 705.812 146.89 705.872 146.41 705.873 146.403 705.874 146.395 705.875 146.388 706.252 143.046 707.528 138.415 708.943 138.415 710.357 138.415 711.633 143.046 712.011 146.388 712.06 146.83 712.434 147.165 712.879 147.165 712.912 147.165 712.945 147.163 712.978 147.16 713.458 147.106 713.804 146.673 713.75 146.192 713.723 145.96 713.675 145.583 713.606 145.125 715.758 146.592 717.1 148.981 717.234 151.581L717.273 152.415 719.654 152.415C721.228 152.417 722.503 153.692 722.505 155.266Z"/><path d="M677.879 181.395 677.879 178.75C677.879 178.267 677.487 177.875 677.004 177.875 676.521 177.875 676.129 178.267 676.129 178.75L676.129 182.25C676.129 182.733 676.521 183.125 677.004 183.125L677.529 183.125C678.206 183.125 678.754 183.673 678.754 184.35L678.754 184.876C678.752 185.842 677.969 186.624 677.004 186.625L675.396 186.625C674.913 186.625 674.521 187.017 674.521 187.5 674.521 187.983 674.913 188.375 675.396 188.375L677.004 188.375C678.935 188.373 680.501 186.809 680.504 184.877L680.504 184.352C680.505 182.844 679.377 181.574 677.879 181.396Z"/><path d="M715.503 151.188C715.503 151.912 714.916 152.5 714.191 152.5 713.466 152.5 712.878 151.912 712.878 151.188 712.878 150.463 713.466 149.875 714.191 149.875 714.916 149.875 715.503 150.463 715.503 151.188Z"/></g></g></g><text fill="#4472C4" font-family="Calibri,Calibri_MSFontService,sans-serif" font-weight="400" font-size="24" transform="translate(271.052 188)">Merkmal</text><text fill="#4472C4" font-family="Calibri,Calibri_MSFontService,sans-serif" font-weight="400" font-size="24" transform="translate(358.886 188)">:</text><text fill="#4472C4" font-family="Calibri,Calibri_MSFontService,sans-serif" font-weight="400" font-size="24" transform="translate(271.052 217)">K├╢rpergr├╢├Яe</text><text font-family="Cambria Math,Cambria Math_MSFontService,sans-serif" font-weight="400" font-size="24" transform="translate(296.999 256)">ЁЭСЛ</text><text font-family="Cambria Math,Cambria Math_MSFontService,sans-serif" font-weight="400" font-size="24" transform="translate(337.085 256)">:</text><text font-family="Cambria Math,Cambria Math_MSFontService,sans-serif" font-weight="400" font-size="24" transform="translate(347.419 256)">=</text><text font-family="Cambria Math,Cambria Math_MSFontService,sans-serif" font-weight="400" font-size="24" transform="translate(389.419 256)">(</text><text font-family="Cambria Math,Cambria Math_MSFontService,sans-serif" font-weight="400" font-size="24" transform="translate(431.812 256)">ЁЭСе</text><text font-family="Cambria Math,Cambria Math_MSFontService,sans-serif" font-weight="400" font-size="18" transform="translate(443.859 261)">1</text><text font-family="Cambria Math,Cambria Math_MSFontService,sans-serif" font-weight="400" font-size="24" transform="translate(487.419 256)">,</text><text font-family="Cambria Math,Cambria Math_MSFontService,sans-serif" font-weight="400" font-size="24" transform="translate(517.872 256)">ЁЭСе</text><text font-family="Cambria Math,Cambria Math_MSFontService,sans-serif" font-weight="400" font-size="18" transform="translate(530.472 261)">2</text><text font-family="Cambria Math,Cambria Math_MSFontService,sans-serif" font-weight="400" font-size="24" transform="translate(567.085 256)">,</text><text font-family="Cambria Math,Cambria Math_MSFontService,sans-serif" font-weight="400" font-size="24" transform="translate(597.539 256)">ЁЭСе</text><text font-family="Cambria Math,Cambria Math_MSFontService,sans-serif" font-weight="400" font-size="18" transform="translate(610.139 261)">3</text><text font-family="Cambria Math,Cambria Math_MSFontService,sans-serif" font-weight="400" font-size="24" transform="translate(646.752 256)">,</text><text font-family="Cambria Math,Cambria Math_MSFontService,sans-serif" font-weight="400" font-size="24" transform="translate(677.205 256)">ЁЭСе</text><text font-family="Cambria Math,Cambria Math_MSFontService,sans-serif" font-weight="400" font-size="18" transform="translate(689.805 261)">4</text><text font-family="Cambria Math,Cambria Math_MSFontService,sans-serif" font-weight="400" font-size="24" transform="translate(726.419 256)">,</text><text font-family="Cambria Math,Cambria Math_MSFontService,sans-serif" font-weight="400" font-size="24" transform="translate(756.872 256)">ЁЭСе</text><text font-family="Cambria Math,Cambria Math_MSFontService,sans-serif" font-weight="400" font-size="18" transform="translate(769.472 261)">5</text><text font-family="Cambria Math,Cambria Math_MSFontService,sans-serif" font-weight="400" font-size="24" transform="translate(806.085 256)">,</text><text font-family="Cambria Math,Cambria Math_MSFontService,sans-serif" font-weight="400" font-size="24" transform="translate(836.539 256)">ЁЭСе</text><text font-family="Cambria Math,Cambria Math_MSFontService,sans-serif" font-weight="400" font-size="18" transform="translate(849.139 261)">6</text><text font-family="Cambria Math,Cambria Math_MSFontService,sans-serif" font-weight="400" font-size="24" transform="translate(885.752 256)">,</text><text font-family="Cambria Math,Cambria Math_MSFontService,sans-serif" font-weight="400" font-size="24" transform="translate(916.205 256)">ЁЭСе</text><text font-family="Cambria Math,Cambria Math_MSFontService,sans-serif" font-weight="400" font-size="18" transform="translate(928.805 261)">7</text><text font-family="Cambria Math,Cambria Math_MSFontService,sans-serif" font-weight="400" font-size="24" transform="translate(965.419 256)">)</text><text font-family="Cambria Math,Cambria Math_MSFontService,sans-serif" font-weight="400" font-size="24" transform="translate(302.372 286)"></text><text font-family="Cambria Math,Cambria Math_MSFontService,sans-serif" font-weight="400" font-size="24" transform="translate(342.252 286)">=</text><text font-family="Cambria Math,Cambria Math_MSFontService,sans-serif" font-weight="400" font-size="24" transform="translate(389.419 286)">(</text><text font-family="Cambria Math,Cambria Math_MSFontService,sans-serif" font-weight="400" font-size="24" transform="translate(423.419 286)">106</text><text font-family="Cambria Math,Cambria Math_MSFontService,sans-serif" font-weight="400" font-size="24" transform="translate(487.419 286)">,</text><text font-family="Cambria Math,Cambria Math_MSFontService,sans-serif" font-weight="400" font-size="24" transform="translate(516.419 286)">30</text><text font-family="Cambria Math,Cambria Math_MSFontService,sans-serif" font-weight="400" font-size="24" transform="translate(567.085 286)">,</text><text font-family="Cambria Math,Cambria Math_MSFontService,sans-serif" font-weight="400" font-size="24" transform="translate(596.085 286)">84</text><text font-family="Cambria Math,Cambria Math_MSFontService,sans-serif" font-weight="400" font-size="24" transform="translate(646.752 286)">,</text><text font-family="Cambria Math,Cambria Math_MSFontService,sans-serif" font-weight="400" font-size="24" transform="translate(675.752 286)">35</text><text font-family="Cambria Math,Cambria Math_MSFontService,sans-serif" font-weight="400" font-size="24" transform="translate(726.419 286)">,</text><text font-family="Cambria Math,Cambria Math_MSFontService,sans-serif" font-weight="400" font-size="24" transform="translate(755.419 286)">30</text><text font-family="Cambria Math,Cambria Math_MSFontService,sans-serif" font-weight="400" font-size="24" transform="translate(806.085 286)">,</text><text font-family="Cambria Math,Cambria Math_MSFontService,sans-serif" font-weight="400" font-size="24" transform="translate(835.085 286)">30</text><text font-family="Cambria Math,Cambria Math_MSFontService,sans-serif" font-weight="400" font-size="24" transform="translate(885.752 286)">,</text><text font-family="Cambria Math,Cambria Math_MSFontService,sans-serif" font-weight="400" font-size="24" transform="translate(914.752 286)">84</text><text font-family="Cambria Math,Cambria Math_MSFontService,sans-serif" font-weight="400" font-size="24" transform="translate(965.419 286)">)</text><path d="M442 170 442 229.121 440 229.121 440 170ZM445 227.787 441 235.787 437 227.787Z" fill="#4472C4"/><path d="M607 163 607 222.121 605 222.121 605 163ZM610 220.787 606 228.787 602 220.787Z" fill="#4472C4"/><path d="M772 163 772 222.121 770 222.121 770 163ZM775 220.787 771 228.787 767 220.787Z" fill="#4472C4"/><path d="M927 167 927 226.121 925 226.121 925 167ZM930 224.787 926 232.787 922 224.787Z" fill="#4472C4"/><path d="M531 205 531 225.718 529 225.718 529 205ZM534 224.384 530 232.384 526 224.384Z" fill="#4472C4"/><path d="M689 202 689 222.718 687 222.718 687 202ZM692 221.384 688 229.384 684 221.384Z" fill="#4472C4"/><path d="M847 198 847 218.718 845 218.718 845 198ZM850 217.384 846 225.384 842 217.384Z" fill="#4472C4"/><text font-family="Cambria Math,Cambria Math_MSFontService,sans-serif" font-weight="400" font-size="24" transform="translate(297.629 398)"></text><text font-family="Cambria Math,Cambria Math_MSFontService,sans-serif" font-weight="400" font-size="24" transform="translate(333.296 398)"></text><text font-family="Cambria Math,Cambria Math_MSFontService,sans-serif" font-weight="400" font-size="24" transform="translate(368.962 398)">(</text><text font-family="Cambria Math,Cambria Math_MSFontService,sans-serif" font-weight="400" font-size="24" transform="translate(402.962 398)">ЁЭСе</text><path d="M432.474 389.914 436.393 389.914 436.393 406.674 432.474 406.674 432.474 405.998 434.934 405.998 434.934 390.591 432.474 390.591ZM417.799 389.914 421.719 389.914 421.719 390.591 419.258 390.591 419.258 405.998 421.719 405.998 421.719 406.674 417.799 406.674Z" fill-rule="evenodd"/><text font-family="Cambria Math,Cambria Math_MSFontService,sans-serif" font-weight="400" font-size="18" transform="translate(421.929 403)">1</text><text font-family="Cambria Math,Cambria Math_MSFontService,sans-serif" font-weight="400" font-size="24" transform="translate(463.222 398)">,</text><text font-family="Cambria Math,Cambria Math_MSFontService,sans-serif" font-weight="400" font-size="24" transform="translate(492.222 398)">ЁЭСе</text><path d="M521.734 389.914 525.653 389.914 525.653 406.674 521.734 406.674 521.734 405.998 524.194 405.998 524.194 390.591 521.734 390.591ZM507.06 389.914 510.979 389.914 510.979 390.591 508.518 390.591 508.518 405.998 510.979 405.998 510.979 406.674 507.06 406.674Z" fill-rule="evenodd"/><text font-family="Cambria Math,Cambria Math_MSFontService,sans-serif" font-weight="400" font-size="18" transform="translate(511.189 403)">2</text><text font-family="Cambria Math,Cambria Math_MSFontService,sans-serif" font-weight="400" font-size="24" transform="translate(552.482 398)">,</text><text font-family="Cambria Math,Cambria Math_MSFontService,sans-serif" font-weight="400" font-size="24" transform="translate(581.482 398)">ЁЭСе</text><path d="M610.994 389.914 614.913 389.914 614.913 406.674 610.994 406.674 610.994 405.998 613.454 405.998 613.454 390.591 610.994 390.591ZM596.32 389.914 600.239 389.914 600.239 390.591 597.779 390.591 597.779 405.998 600.239 405.998 600.239 406.674 596.32 406.674Z" fill-rule="evenodd"/><text font-family="Cambria Math,Cambria Math_MSFontService,sans-serif" font-weight="400" font-size="18" transform="translate(600.449 403)">3</text><text font-family="Cambria Math,Cambria Math_MSFontService,sans-serif" font-weight="400" font-size="24" transform="translate(641.742 398)">,</text><text font-family="Cambria Math,Cambria Math_MSFontService,sans-serif" font-weight="400" font-size="24" transform="translate(670.742 398)">ЁЭСе</text><path d="M700.254 389.914 704.173 389.914 704.173 406.674 700.254 406.674 700.254 405.998 702.714 405.998 702.714 390.591 700.254 390.591ZM685.58 389.914 689.499 389.914 689.499 390.591 687.039 390.591 687.039 405.998 689.499 405.998 689.499 406.674 685.58 406.674Z" fill-rule="evenodd"/><text font-family="Cambria Math,Cambria Math_MSFontService,sans-serif" font-weight="400" font-size="18" transform="translate(689.709 403)">4</text><text font-family="Cambria Math,Cambria Math_MSFontService,sans-serif" font-weight="400" font-size="24" transform="translate(731.002 398)">,</text><text font-family="Cambria Math,Cambria Math_MSFontService,sans-serif" font-weight="400" font-size="24" transform="translate(760.002 398)">ЁЭСе</text><path d="M789.514 389.914 793.433 389.914 793.433 406.674 789.514 406.674 789.514 405.998 791.974 405.998 791.974 390.591 789.514 390.591ZM774.84 389.914 778.759 389.914 778.759 390.591 776.299 390.591 776.299 405.998 778.759 405.998 778.759 406.674 774.84 406.674Z" fill-rule="evenodd"/><text font-family="Cambria Math,Cambria Math_MSFontService,sans-serif" font-weight="400" font-size="18" transform="translate(778.969 403)">5</text><text font-family="Cambria Math,Cambria Math_MSFontService,sans-serif" font-weight="400" font-size="24" transform="translate(820.262 398)">,</text><text font-family="Cambria Math,Cambria Math_MSFontService,sans-serif" font-weight="400" font-size="24" transform="translate(849.262 398)">ЁЭСе</text><path d="M878.774 389.914 882.693 389.914 882.693 406.674 878.774 406.674 878.774 405.998 881.234 405.998 881.234 390.591 878.774 390.591ZM864.1 389.914 868.019 389.914 868.019 390.591 865.559 390.591 865.559 405.998 868.019 405.998 868.019 406.674 864.1 406.674Z" fill-rule="evenodd"/><text font-family="Cambria Math,Cambria Math_MSFontService,sans-serif" font-weight="400" font-size="18" transform="translate(868.229 403)">6</text><text font-family="Cambria Math,Cambria Math_MSFontService,sans-serif" font-weight="400" font-size="24" transform="translate(909.522 398)">,</text><text font-family="Cambria Math,Cambria Math_MSFontService,sans-serif" font-weight="400" font-size="24" transform="translate(940.389 398)">ЁЭСе</text><path d="M969.9 389.914 973.82 389.914 973.82 406.674 969.9 406.674 969.9 405.998 972.361 405.998 972.361 390.591 969.9 390.591ZM955.226 389.914 959.146 389.914 959.146 390.591 956.685 390.591 956.685 405.998 959.146 405.998 959.146 406.674 955.226 406.674Z" fill-rule="evenodd"/><text font-family="Cambria Math,Cambria Math_MSFontService,sans-serif" font-weight="400" font-size="18" transform="translate(959.356 403)">7</text><text font-family="Cambria Math,Cambria Math_MSFontService,sans-serif" font-weight="400" font-size="24" transform="translate(1002.52 398)">)</text><text font-family="Cambria Math,Cambria Math_MSFontService,sans-serif" font-weight="400" font-size="24" transform="translate(297.629 431)"></text><text font-family="Cambria Math,Cambria Math_MSFontService,sans-serif" font-weight="400" font-size="24" transform="translate(326.962 431)">=</text><text font-family="Cambria Math,Cambria Math_MSFontService,sans-serif" font-weight="400" font-size="24" transform="translate(368.962 431)">(</text><text font-family="Cambria Math,Cambria Math_MSFontService,sans-serif" font-weight="400" font-size="24" transform="translate(407.756 431)">30</text><text font-family="Cambria Math,Cambria Math_MSFontService,sans-serif" font-weight="400" font-size="24" transform="translate(463.222 431)">,</text><text font-family="Cambria Math,Cambria Math_MSFontService,sans-serif" font-weight="400" font-size="24" transform="translate(497.016 431)">30</text><text font-family="Cambria Math,Cambria Math_MSFontService,sans-serif" font-weight="400" font-size="24" transform="translate(552.482 431)">,</text><text font-family="Cambria Math,Cambria Math_MSFontService,sans-serif" font-weight="400" font-size="24" transform="translate(586.276 431)">30</text><text font-family="Cambria Math,Cambria Math_MSFontService,sans-serif" font-weight="400" font-size="24" transform="translate(641.742 431)">,</text><text font-family="Cambria Math,Cambria Math_MSFontService,sans-serif" font-weight="400" font-size="24" transform="translate(675.536 431)">35</text><text font-family="Cambria Math,Cambria Math_MSFontService,sans-serif" font-weight="400" font-size="24" transform="translate(731.002 431)">,</text><text font-family="Cambria Math,Cambria Math_MSFontService,sans-serif" font-weight="400" font-size="24" transform="translate(764.796 431)">84</text><text font-family="Cambria Math,Cambria Math_MSFontService,sans-serif" font-weight="400" font-size="24" transform="translate(820.262 431)">,</text><text font-family="Cambria Math,Cambria Math_MSFontService,sans-serif" font-weight="400" font-size="24" transform="translate(854.056 431)">84</text><text font-family="Cambria Math,Cambria Math_MSFontService,sans-serif" font-weight="400" font-size="24" transform="translate(909.522 431)">,</text><text font-family="Cambria Math,Cambria Math_MSFontService,sans-serif" font-weight="400" font-size="24" transform="translate(938.522 431)">106</text><text font-family="Cambria Math,Cambria Math_MSFontService,sans-serif" font-weight="400" font-size="24" transform="translate(1002.52 431)">)</text><path d="M571 344.906 583.914 344.906 583.914 299 783.086 299 783.086 344.906 796 344.906 683.5 377Z" stroke="#FFFFFF" stroke-width="2" stroke-miterlimit="8" fill="#B4C7E7" fill-rule="evenodd"/><text fill="#4472C4" font-family="Calibri,Calibri_MSFontService,sans-serif" font-weight="400" font-size="19" transform="translate(645.693 318)">Sortieren</text><text fill="#4472C4" font-family="Calibri,Calibri_MSFontService,sans-serif" font-weight="400" font-size="19" transform="translate(715.946 318)">:</text><text fill="#4472C4" font-family="Cambria Math,Cambria Math_MSFontService,sans-serif" font-weight="400" font-size="19" transform="translate(596.973 341)">ЁЭСе</text><text fill="#4472C4" font-family="Cambria Math,Cambria Math_MSFontService,sans-serif" font-weight="400" font-size="14" transform="translate(606.359 344)">1</text><text fill="#4472C4" font-family="Cambria Math,Cambria Math_MSFontService,sans-serif" font-weight="400" font-size="19" transform="translate(620.153 341)">тЖТ</text><text fill="#4472C4" font-family="Cambria Math,Cambria Math_MSFontService,sans-serif" font-weight="400" font-size="19" transform="translate(641.006 341)">ЁЭСе</text><path d="M663.907 334.005 666.956 334.005 666.956 347.041 663.907 347.041 663.907 346.515 665.821 346.515 665.821 334.531 663.907 334.531ZM652.565 334.005 655.613 334.005 655.613 334.531 653.699 334.531 653.699 346.515 655.613 346.515 655.613 347.041 652.565 347.041Z" fill="#4472C4" fill-rule="evenodd"/><text fill="#4472C4" font-family="Cambria Math,Cambria Math_MSFontService,sans-serif" font-weight="400" font-size="14" transform="translate(655.779 344)">7</text><text fill="#4472C4" font-family="Cambria Math,Cambria Math_MSFontService,sans-serif" font-weight="400" font-size="19" transform="translate(669.159 341)">,</text><text fill="#4472C4" font-family="Cambria Math,Cambria Math_MSFontService,sans-serif" font-weight="400" font-size="19" transform="translate(676.106 341)">ЁЭСе</text><text fill="#4472C4" font-family="Cambria Math,Cambria Math_MSFontService,sans-serif" font-weight="400" font-size="14" transform="translate(685.926 344)">2</text><text fill="#4472C4" font-family="Cambria Math,Cambria Math_MSFontService,sans-serif" font-weight="400" font-size="19" transform="translate(699.719 341)">тЖТ</text><text fill="#4472C4" font-family="Cambria Math,Cambria Math_MSFontService,sans-serif" font-weight="400" font-size="19" transform="translate(720.573 341)">ЁЭСе</text><path d="M743.473 334.005 746.522 334.005 746.522 347.041 743.473 347.041 743.473 346.515 745.387 346.515 745.387 334.531 743.473 334.531ZM732.131 334.005 735.18 334.005 735.18 334.531 733.266 334.531 733.266 346.515 735.18 346.515 735.18 347.041 732.131 347.041Z" fill="#4472C4" fill-rule="evenodd"/><text fill="#4472C4" font-family="Cambria Math,Cambria Math_MSFontService,sans-serif" font-weight="400" font-size="14" transform="translate(735.346 344)">1</text><text fill="#4472C4" font-family="Cambria Math,Cambria Math_MSFontService,sans-serif" font-weight="400" font-size="19" transform="translate(748.726 341)">,</text><text fill="#4472C4" font-family="Cambria Math,Cambria Math_MSFontService,sans-serif" font-weight="400" font-size="19" transform="translate(755.673 341)">тАж</text></g></svg>