<svg width="756" height="416" xmlns="http://www.w3.org/2000/svg" xmlns:xlink="http://www.w3.org/1999/xlink" overflow="hidden"><defs><clipPath id="clip0"><rect x="0" y="0" width="756" height="416"/></clipPath></defs><g clip-path="url(#clip0)"><rect x="0" y="0" width="756" height="416.242" fill="#FFFFFF"/><g><g><g><path d="M34.452 55.7906C34.4219 55.7865 34.3916 55.7844 34.3612 55.7844L31.6387 55.7844C34.4398 53.7473 36.1015 50.4966 36.1123 47.0332 36.1123 42.339 35.092 40.2758 31.9137 38.5419 31.5848 38.3522 31.1644 38.465 30.9747 38.7939 30.785 39.1228 30.8978 39.5433 31.2267 39.733 31.2361 39.7384 31.2455 39.7435 31.2551 39.7485 33.9886 41.2403 34.7373 42.8065 34.7373 47.036 34.7373 51.7247 31.625 54.43 29.0139 55.8731 28.6817 56.0569 28.5613 56.4753 28.7451 56.8075 28.8662 57.0263 29.0966 57.1621 29.3466 57.1621L34.311 57.1621C35.0278 57.2887 35.5155 57.9601 35.4145 58.6808 35.2857 59.362 34.6823 59.8495 33.9893 59.8324L24.6283 59.8324C24.3313 59.8324 22.9721 59.3037 21.7442 56.7187 21.7442 56.7118 21.7346 56.7084 21.7312 56.7015 21.7074 56.6622 21.6797 56.6253 21.6487 56.5915 21.6227 56.5543 21.5929 56.5197 21.56 56.4884 21.5545 56.4836 21.5517 56.476 21.5455 56.4712 21.3812 56.3433 21.1922 56.1996 20.9832 56.0408 18.4119 54.0856 13.0625 50.0238 13.0625 44 13.0625 40.4628 14.5248 37.7829 15.9397 35.191 16.0999 34.8968 16.2594 34.6053 16.4147 34.3145 19.4157 28.7155 19.0362 23.1832 15.3993 19.5147 15.1365 19.2406 14.7014 19.2314 14.4272 19.4942 14.1531 19.7569 14.144 20.1921 14.4068 20.4662 14.4121 20.4718 14.4176 20.4773 14.4231 20.4827 17.6591 23.7469 17.9437 28.5519 15.2034 33.6648 15.0485 33.9522 14.8914 34.2414 14.7324 34.5324 13.3052 37.1477 11.6875 40.1122 11.6875 44 11.6875 50.7058 17.6186 55.2096 20.1513 57.1312 20.3129 57.2536 20.4517 57.3601 20.5872 57.4646 21.8563 60.038 23.52 61.2026 24.6283 61.2026L33.9893 61.2026C35.3741 61.2263 36.5641 60.2247 36.7771 58.8561 36.9781 57.3685 35.9388 55.9981 34.452 55.7906Z" transform="matrix(1 0 0 1.00058 474 29.0168)"/><path d="M45.1 40.4841C45.1 40.5013 44.8518 42.2235 42.8065 45.6218 42.693 45.8102 42.4627 46.2075 42.4627 46.2075 42.3908 46.3137 42.3507 46.4382 42.3472 46.5664L42.3472 56.375C42.3472 56.7547 42.655 57.0625 43.0347 57.0625L43.6445 57.0625C44.3357 57.0467 44.9392 57.5278 45.078 58.2051 45.2063 58.9536 44.7036 59.6644 43.9551 59.7927 43.8791 59.8057 43.8021 59.8123 43.725 59.8125L40.9248 59.8125C40.1654 59.8125 39.5498 59.1969 39.5498 58.4375L39.5498 49.7702C39.5498 49.3904 39.242 49.0827 38.8623 49.0827 38.4826 49.0827 38.1748 49.3904 38.1748 49.7702L38.1748 58.4375C38.1748 59.9562 39.406 61.1875 40.9248 61.1875L43.5998 61.1875C45.0446 61.212 46.2763 60.1458 46.4592 58.7125 46.6092 57.1992 45.5039 55.8509 43.9907 55.7009 43.9024 55.6921 43.8137 55.6877 43.725 55.6875L43.725 46.7603C46.0852 42.9543 46.4317 40.9227 46.4667 40.6697 46.7967 39.1143 46.938 37.5248 46.8875 35.9356L46.8875 35.5719C46.9409 33.5382 46.652 31.51 46.0329 29.5721 45.711 28.6691 45.5441 27.7182 45.5393 26.7595 45.5829 25.6415 46.5183 24.7668 47.6368 24.7981 50.9531 24.7339 53.6118 22.0341 53.625 18.7172 53.6393 18.1382 53.4536 17.5719 53.099 17.1139L47.5585 9.06537 47.5585 6.92243C47.5726 6.42074 47.3189 5.94939 46.8923 5.68493 46.3664 5.3729 45.6969 5.45026 45.256 5.874L35.9562 14.575C34.7422 15.7215 34.0541 17.3175 34.0539 18.9874L34.0539 19.3916C34.0539 21.1234 32.1502 22.6675 29.7399 24.6221 25.0181 28.4522 18.5508 33.6971 18.5508 45.685 18.5133 47.8285 18.6756 49.9708 19.0355 52.0843 19.0974 52.4079 19.3803 52.6421 19.7099 52.6425 19.7538 52.6426 19.7976 52.6382 19.8405 52.6295 20.2131 52.5577 20.4571 52.1977 20.3857 51.8251 20.0427 49.797 19.8887 47.7415 19.9258 45.685 19.9258 34.3523 26.0989 29.3459 30.6061 25.6905 33.3004 23.5049 35.4289 21.7786 35.4289 19.3916L35.4289 18.9874C35.428 17.6977 35.9588 16.4647 36.896 15.5787L46.1773 6.86262C46.18 6.85996 46.1844 6.86001 46.187 6.86272 46.1882 6.86397 46.189 6.86567 46.189 6.86743L46.189 9.28124C46.1891 9.42053 46.2315 9.55645 46.3107 9.67106L52.0018 17.9355C52.4383 18.4814 52.3001 19.3105 51.6711 20.6607 50.9018 22.2905 49.2904 23.3574 47.4897 23.4293 45.6706 23.4697 44.2059 24.9356 44.167 26.7547 44.1709 27.8501 44.3567 28.9371 44.717 29.9715 45.2985 31.7796 45.5675 33.6735 45.5125 35.5719L45.5125 35.9418C45.5617 37.44 45.4291 38.9387 45.1178 40.405Z" transform="matrix(1 0 0 1.00058 474 29.0168)"/><path d="M48.1243 14.7812C48.1243 15.3508 47.6626 15.8125 47.093 15.8125 46.5235 15.8125 46.0618 15.3508 46.0618 14.7812 46.0618 14.2117 46.5235 13.75 47.093 13.75 47.6626 13.75 48.1243 14.2117 48.1243 14.7812Z" transform="matrix(1 0 0 1.00058 474 29.0168)"/></g></g></g><g><g><g><path d="M62.0812 19.4104 55.3437 9.625 55.3437 6.7375C55.3437 6.01562 54.4614 5.69479 53.9802 6.17604L42.9114 16.5229C41.6281 17.726 40.9062 19.4104 40.9062 21.175L40.9062 21.6562C40.9062 28.4739 22.4583 31.2812 22.4583 52.9375 22.4583 55.825 22.6187 58.3114 23.0198 60.3969 22.8594 60.2364 22.6989 60.076 22.4583 59.9156 20.6135 58.151 18.4479 54.2208 18.4479 45.7187 18.4479 42.751 19.8917 39.7031 21.3354 36.8156 23.5812 32.1635 26.1479 26.8698 21.7365 22.3781 20.774 21.4156 19.25 21.4156 18.3677 22.3781 17.4052 23.3406 17.4052 24.8646 18.3677 25.7469 20.2125 27.5917 19.4104 29.7573 17.0844 34.65 15.4 37.9385 13.6354 41.7083 13.6354 45.7187 13.6354 53.9802 15.5604 59.9958 19.25 63.525 21.175 65.3698 23.2604 66.0916 24.7042 66.4125 26.2281 69.6208 28.0729 70.5833 28.875 70.5833L38.5 70.5833C39.8635 70.5833 40.9062 69.5406 40.9062 68.1771 40.9062 66.9739 40.0239 65.9312 38.8208 65.7708L36.0937 65.7708C39.1417 64.0864 41.7083 60.6375 41.7083 54.5416 41.7083 49.2479 40.6656 47.0823 37.1364 45.1573 36.575 44.8364 36.3344 44.1146 36.6552 43.5531 36.976 42.9916 37.6979 42.751 38.2594 43.0719 43.1521 45.6385 44.1146 49.2479 44.1146 54.5416 44.1146 57.4291 43.5531 59.9958 42.5104 62.1614L42.5104 68.1771C42.5104 69.5406 43.5531 70.5833 44.9166 70.5833 46.2802 70.5833 47.3229 69.5406 47.3229 68.1771L47.3229 60.7979C47.8844 60.1562 48.4458 59.4343 48.9271 58.6323L48.9271 68.1771C48.9271 69.5406 49.9698 70.5833 51.3333 70.5833 52.6968 70.5833 53.7396 69.5406 53.7396 68.1771L53.7396 46.8416C54.301 44.4354 54.5416 42.35 54.5416 40.9062 54.5416 34.5698 52.9375 33.9281 52.9375 30.4792 52.9375 28.7146 54.3812 27.2708 56.1458 27.2708 59.675 27.2708 62.5625 24.3833 62.5625 20.8542 62.5625 20.2927 62.4021 19.8115 62.0812 19.4104Z" transform="matrix(1 0 0 1.00058 234 78.0453)"/></g></g></g><g><g><g><path d="M63.9049 40.4861 59.7117 39.009C59.3236 38.8643 58.8917 39.0617 58.747 39.4497 58.6022 39.8378 58.7996 40.2698 59.1877 40.4145 59.1963 40.4177 59.205 40.4207 59.2137 40.4237L63.3878 41.8937C64.1597 42.1946 64.5416 43.0643 64.2406 43.8363 63.9396 44.6083 63.0699 44.9901 62.2979 44.6891L57.4409 42.9698C57.0504 42.8314 56.6218 43.0358 56.4834 43.4262 56.345 43.8167 56.5494 44.2453 56.9399 44.3837L61.7794 46.097C63.3281 46.6857 65.0609 45.9076 65.6497 44.3588 66.2384 42.8102 65.4602 41.0774 63.9116 40.4886 63.9093 40.4877 63.9071 40.4869 63.9049 40.4861Z" transform="matrix(1 0 0 1.01448 541 82.0477)"/><path d="M66.8675 26.0753 66.5815 25.7893 66.8404 21.9895C66.936 20.6429 66.4887 19.3141 65.5982 18.2995 64.8518 17.3957 63.8687 16.7171 62.759 16.3395L62.759 13.515C62.759 12.6866 62.0873 12.015 61.259 12.015 60.8858 12.015 60.5261 12.1541 60.2501 12.405L57.375 15.0172C57.3563 15.0341 57.3384 15.0519 57.3215 15.0707 57.1523 15.2594 56.9453 15.4106 56.714 15.5145L55.154 16.2206C53.0713 17.1587 51.3337 18.7241 50.1842 20.6981L46.905 26.3073C46.4733 27.0419 45.721 27.5305 44.8743 27.626L40.5263 28.1069C37.5572 28.4851 34.7208 29.5655 32.2525 31.2585L29.4155 33.209C27.3224 34.6334 25.5875 36.5228 24.3464 38.7296 23.8781 39.5363 23.5397 40.4119 23.3438 41.324 20.4659 45.5006 13.2788 47.3454 5.38875 45.911 4.9814 45.8359 4.5903 46.1052 4.51519 46.5125 4.44008 46.9199 4.70942 47.311 5.11677 47.3861 5.11808 47.3864 5.11939 47.3866 5.1207 47.3868 6.90839 47.7152 8.72198 47.8823 10.5395 47.8863 15.7395 47.8863 20.2879 46.4411 23.1102 43.8527 23.1073 44.0272 23.1027 44.1935 23.1027 44.3811 23.1027 48.0224 24.6927 49.5711 26.0957 50.9379 27.3061 52.1175 28.352 53.1365 28.352 55.5 28.3539 57.1561 29.696 58.4981 31.352 58.5L41.102 58.5C42.7589 58.5 44.102 57.1568 44.102 55.5 44.102 53.8432 42.7589 52.5 41.102 52.5L38.7368 52.5C39.3491 52.0035 39.8702 51.4042 40.277 50.729 41.8249 50.5706 47.5577 49.88 50.3578 48.1142L55.8387 53.4767C57.0221 54.6368 58.9219 54.6179 60.082 53.4345 60.1313 53.3842 60.1788 53.3322 60.2244 53.2786 61.2385 52.0308 61.1201 50.2124 59.9527 49.1067L55.7508 44.9864C55.5096 44.7494 55.4567 44.3803 55.6215 44.085L58.6307 38.7041C59.2115 37.6676 59.5789 36.5254 59.711 35.3447L60.0732 32.1374C60.1067 31.8399 60.3584 31.6152 60.6577 31.6154L62.3625 31.6154C63.3269 31.6133 64.2656 31.3051 65.0434 30.735L66.602 29.5875C67.6349 28.8268 67.8554 27.3728 67.0947 26.34 67.0257 26.2463 66.9497 26.158 66.8675 26.0757ZM58.5825 31.9688 58.4574 33.0762 48.6464 26.3006 49.2558 25.2581 58.6317 31.7334C58.6108 31.8108 58.5944 31.8894 58.5825 31.9688ZM57.3212 37.9719 54.3121 43.3528C53.8181 44.2391 53.9772 45.3461 54.7007 46.0574L58.9022 50.1773C59.4994 50.7349 59.5775 51.6541 59.0831 52.3045 58.5134 52.9379 57.5383 52.9895 56.9049 52.42 56.8992 52.4149 56.8936 52.4098 56.888 52.4046L47.8583 43.5707C47.5621 43.281 47.0872 43.2863 46.7976 43.5825 46.508 43.8786 46.5132 44.3535 46.8094 44.6432L49.245 47.0261C47.18 48.1685 43.3306 48.8486 40.979 49.1402 41.5186 47.3102 41.2549 45.3371 40.2536 43.7129 40.0364 43.3602 39.5743 43.2504 39.2216 43.4676 38.8688 43.6848 38.759 44.1469 38.9762 44.4996 40.4945 46.9706 39.7222 50.2046 37.2512 51.7229 36.4247 52.2308 35.4737 52.4997 34.5036 52.5L34.352 52.5C33.9378 52.5 33.602 52.8358 33.602 53.25 33.602 53.6642 33.9378 54 34.352 54L41.102 54C41.9305 54 42.602 54.6716 42.602 55.5 42.602 56.3285 41.9305 57 41.102 57L31.352 57C30.524 56.9991 29.8529 56.3281 29.852 55.5 29.852 52.5037 28.412 51.1011 27.1417 49.8635 25.8358 48.5912 24.602 47.3895 24.602 44.381 24.602 41.9879 24.8195 40.9752 25.6595 39.4549 26.7875 37.4519 28.3638 35.7371 30.265 34.4449L33.102 32.4944C35.3696 30.9388 37.9749 29.9454 40.7025 29.5964L45.0389 29.1169C46.1414 28.991 47.1497 28.4351 47.8448 27.57L58.2667 34.7675 58.2206 35.1762C58.1105 36.1588 57.8048 37.1093 57.3215 37.9719ZM65.7126 28.3794 64.1541 29.5269C63.635 29.9092 63.0072 30.1154 62.3625 30.1154L60.6577 30.1154C60.2335 30.1167 59.8199 30.2481 59.4727 30.4918L50.015 23.9597 51.4797 21.4547C52.4752 19.7521 53.975 18.4007 55.7719 17.5875L57.3329 16.8811C57.7408 16.6973 58.1072 16.4328 58.41 16.1034L61.2462 13.5264C61.2493 13.5236 61.254 13.5239 61.2568 13.5269 61.2581 13.5284 61.2587 13.5301 61.2587 13.532L61.2587 16.8845C61.259 17.217 61.478 17.5098 61.797 17.604 62.8417 17.8594 63.7757 18.4459 64.4595 19.2759 65.0894 19.9943 65.4076 20.9338 65.3439 21.8871L65.0784 25.7804C65.0529 26.1537 65.1902 26.5198 65.4549 26.7842L65.8064 27.1357C66.1275 27.4569 66.1274 27.9776 65.8062 28.2987 65.7771 28.3278 65.7458 28.3547 65.7127 28.3791Z" transform="matrix(1 0 0 1.01448 541 82.0477)"/><path d="M63.7529 22.875C63.7529 23.4963 63.2492 24 62.6279 24 62.0065 24 61.5029 23.4963 61.5029 22.875 61.5029 22.2537 62.0065 21.75 62.6279 21.75 63.2492 21.75 63.7529 22.2537 63.7529 22.875Z" transform="matrix(1 0 0 1.01448 541 82.0477)"/></g></g></g><g><g><g><path d="M130.487 41.3667C129.271 36.0437 124.404 31.9375 118.625 31.9375L110.26 31.9375 108.587 41.6708C108.435 42.5833 108.435 43.6479 108.892 44.5604 109.5 45.9292 110.869 46.8417 112.237 47.1458 113.758 47.45 115.279 46.9937 116.344 45.7771 116.952 45.0167 117.408 44.1042 117.56 43.1917L118.625 37.4125C118.777 36.6521 119.537 36.0437 120.45 36.1958 121.21 36.3479 121.819 37.1083 121.667 38.0208L120.754 43.6479C120.45 45.7771 119.233 47.7542 117.408 48.9708 116.192 49.8833 114.671 50.1875 113.15 50.1875 112.694 50.1875 112.237 50.1875 111.781 50.0354 109.5 49.5792 107.675 48.3625 106.458 46.3854 105.546 44.7125 105.242 42.8875 105.546 41.0625L106.915 33.0021 96.2687 44.7125C94.1396 47.1458 90.7937 48.6667 87.4479 48.6667L44.1042 48.6667C40.15 48.6667 36.5 50.1875 33.7625 52.7729 28.5917 51.8604 19.9229 49.1229 14.7521 40.4542 13.5354 38.325 10.7979 37.4125 8.66875 38.4771 6.23541 39.6937 5.475 42.5833 6.84375 44.8646 12.9271 55.2062 22.3562 59.3125 29.3521 61.1375 29.0479 62.05 28.8958 62.9625 28.8958 63.875L28.8958 109.348C28.8958 111.629 30.4167 113.606 32.5458 114.062 35.4354 114.671 38.0208 112.39 38.0208 109.652L38.0208 80.6041 58.7041 80.6041C61.8979 83.3416 67.6771 85.1666 74.5208 85.1666 74.5208 85.1666 77.1062 85.1666 80.6041 85.1666L80.6041 109.196C80.6041 111.629 82.4291 113.91 84.8625 114.062 87.4479 114.215 89.7291 112.085 89.7291 109.5L89.7291 85.1666 95.8125 85.1666 95.8125 109.348C95.8125 111.629 97.3333 113.606 99.4625 114.062 102.352 114.671 104.937 112.39 104.937 109.652L104.937 81.3646C108.587 76.8021 111.021 69.9583 111.021 69.9583L117.104 54.75 130.792 54.75C135.81 54.75 139.917 50.6437 139.917 45.625L130.487 41.3667Z" transform="matrix(1 0 0 1.00058 115 -5.00296)"/><path d="M44.1042 107.979C44.1042 110.565 46.0812 112.542 48.6667 112.542 51.2521 112.542 53.2292 110.565 53.2292 107.979L53.2292 82.125 44.1042 82.125 44.1042 107.979Z" transform="matrix(1 0 0 1.00058 115 -5.00296)"/></g></g></g><g><g><g><path d="M122.261 38.3792 114.634 34.9343C113.129 29.8655 108.482 26.3799 103.195 26.3525L97.868 26.3525 96.6826 26.3841C94.5477 26.4466 92.527 27.3623 91.0725 28.9264L82.7514 37.9197C81.0417 39.8063 78.6195 40.8905 76.0734 40.9086L36.4751 40.9086C31.916 40.9135 27.7129 43.3728 25.475 47.3448 18.3893 47.8819 9.04968 42.7182 6.43943 34.0155 6.22949 33.3156 5.49188 32.9184 4.79194 33.1282 4.092 33.3382 3.69478 34.0758 3.90472 34.7758 6.76487 44.3101 16.3146 49.9997 24.3427 50.0436 24.0132 51.174 23.8447 52.3453 23.8421 53.5229L23.8157 65.9833 21.2138 76.4275C21.1873 76.532 21.174 76.6394 21.1741 76.7472L21.1741 87.3126C21.1744 87.4208 21.1876 87.5286 21.2138 87.6336L23.1083 95.21C23.6942 97.5673 25.8121 99.2213 28.2412 99.2184L34.3978 99.2184C35.1281 99.2184 35.7202 98.6267 35.7208 97.8964L35.7233 94.4587C35.7243 92.1794 34.0209 90.2595 31.7578 89.989L31.7578 79.9231 41.5704 70.1095 50.6016 70.0248C53.7855 72.5151 59.05 73.99 64.8275 73.99L74.0905 73.99 74.0905 87.3126C74.0908 87.4208 74.104 87.5286 74.1302 87.6336L76.0248 95.21C76.6107 97.5673 78.7285 99.2213 81.1577 99.2184L87.3143 99.2184C88.0445 99.2184 88.6367 98.6267 88.6372 97.8964L88.6397 94.4587C88.6408 92.1794 86.9374 90.2595 84.6743 89.989L84.6743 73.9151C86.5367 73.593 88.3279 72.9455 89.9659 72.0024L89.9659 91.2813C89.9659 92.012 90.5582 92.6042 91.2888 92.6042L92.0794 92.6042C93.1023 92.6042 93.9315 93.4334 93.9315 94.4563 93.9315 94.4566 93.9315 94.4568 93.9315 94.4571L93.9308 96.573 91.289 96.573C90.5583 96.573 89.9661 97.1652 89.9661 97.8959 89.9661 98.6265 90.5583 99.2188 91.289 99.2188L95.2526 99.2188C95.9828 99.2188 96.575 98.6271 96.5755 97.8968L96.578 94.4591C96.5791 92.1798 94.8757 90.2599 92.6126 89.9893L92.6126 69.809C94.6364 67.1434 96.3774 64.2743 97.8079 61.2486L102.767 48.8471 113.778 48.8471C118.89 48.8405 123.033 44.6973 123.038 39.5849 123.038 39.0651 122.734 38.5933 122.261 38.3792ZM113.778 46.2013 101.871 46.2013C101.33 46.2012 100.843 46.5306 100.642 47.033L95.3772 60.2069C93.9925 63.1186 92.3047 65.8764 90.342 68.4345 88.3599 70.1588 85.8818 71.2099 83.2644 71.4364 82.5699 71.4837 82.0304 72.0602 82.0294 72.7564L82.0294 91.2813C82.0294 92.012 82.6216 92.6042 83.3523 92.6042L84.1428 92.6042C85.1657 92.6042 85.9949 93.4334 85.9949 94.4563 85.9949 94.4566 85.9949 94.4568 85.9949 94.4571L85.9933 96.573 81.1585 96.573C79.9439 96.5746 78.8848 95.7475 78.592 94.5686L76.7369 87.1498 76.7369 72.6671C76.7369 71.9364 76.1446 71.3441 75.414 71.3441L64.828 71.3441C59.4182 71.3441 54.596 69.9793 51.9295 67.6929 51.6863 67.4852 51.3763 67.3721 51.0564 67.3745L41.0058 67.4688C40.6592 67.472 40.3277 67.6111 40.0827 67.8564L29.4993 78.4397C29.2513 78.6878 29.1119 79.0242 29.1119 79.375L29.1119 91.2813C29.1119 92.012 29.7041 92.6042 30.4348 92.6042L31.2253 92.6042C32.2482 92.6042 33.0774 93.4334 33.0774 94.4563 33.0774 94.4566 33.0774 94.4568 33.0774 94.4571L33.0766 96.573 28.2418 96.573C27.0272 96.5746 25.9681 95.7475 25.6753 94.5686L23.8202 87.1498 23.8202 76.9105 26.4221 66.466C26.4486 66.3615 26.4618 66.2541 26.4618 66.1463L26.4618 55.4821 26.4882 53.5414C26.4946 48.0283 30.9622 43.5606 36.4753 43.5543L76.0734 43.5543C79.3725 43.5496 82.5146 42.1447 84.7176 39.6891L93.0143 30.7233C93.3738 30.3319 93.802 30.01 94.2778 29.7734L93.8495 36.1035C93.6342 39.3092 96.0543 42.0841 99.2594 42.3069L99.524 42.325C99.6596 42.3344 99.7948 42.3388 99.9296 42.3383 102.987 42.3338 105.52 39.9647 105.728 36.9143L105.963 33.4826C106.024 32.7546 105.484 32.1147 104.756 32.0534 104.028 31.9921 103.388 32.5325 103.326 33.2607 103.325 33.2745 103.324 33.2884 103.324 33.3023L103.089 36.734C102.97 38.4834 101.455 39.8049 99.7052 39.6854 99.7051 39.6854 99.705 39.6854 99.7048 39.6854L99.4403 39.6673C97.6919 39.5456 96.3718 38.0319 96.4888 36.2831L96.9848 29.0275 103.195 28.9974C107.501 29.0171 111.233 31.9835 112.224 36.174 112.316 36.5775 112.592 36.9146 112.969 37.0848L120.341 40.4151C119.919 43.7195 117.109 46.1968 113.778 46.2013Z" transform="matrix(-1 0 0 1.00846 734 0)"/><path d="M39.6959 89.9893 39.6959 76.7292C39.6959 75.9986 39.1036 75.4063 38.3729 75.4063 37.6423 75.4063 37.05 75.9986 37.05 76.7292L37.05 91.2813C37.05 92.012 37.6423 92.6042 38.3729 92.6042L39.1635 92.6042C40.1864 92.6042 41.0156 93.4334 41.0156 94.4563 41.0156 94.4566 41.0156 94.4568 41.0156 94.4571L41.0141 96.573 38.3723 96.573C37.6416 96.573 37.0494 97.1652 37.0494 97.8959 37.0494 98.6265 37.6416 99.2188 38.3723 99.2188L42.3359 99.2188C43.0661 99.2188 43.6583 98.6271 43.6588 97.8968L43.6613 94.4591C43.6624 92.1798 41.959 90.2599 39.6959 89.9893Z" transform="matrix(-1 0 0 1.00846 734 0)"/><path d="M111.13 37.7031C111.13 38.7991 110.242 39.6875 109.146 39.6875 108.05 39.6875 107.161 38.7991 107.161 37.7031 107.161 36.6072 108.05 35.7188 109.146 35.7188 110.242 35.7188 111.13 36.6072 111.13 37.7031Z" transform="matrix(-1 0 0 1.00846 734 0)"/></g></g></g><g><g><g><path d="M37.5833 73.3333 35.2917 73.3333C33 74.7083 30.4792 75.625 27.8438 76.0833L27.8438 76.7708C27.8438 78.7188 29.3333 80.2083 31.2812 80.2083L37.5833 80.2083C39.5312 80.2083 41.0208 78.7188 41.0208 76.7708 41.0208 74.8229 39.5312 73.3333 37.5833 73.3333Z" transform="matrix(1 0 0 1.00058 301 7.00404)"/><path d="M64.2812 49.3854C60.9583 50.4167 57.4062 49.6146 55 47.0938L46.1771 39.0729C39.5312 33.1146 29.4479 32.7708 22.4583 38.3854 19.5938 34.9479 20.0521 29.9063 23.4896 27.0417 24.9792 25.7812 26.8125 25.2083 28.6458 25.2083 30.5938 25.2083 32.0833 23.7188 32.0833 21.7708 32.0833 19.8229 30.5938 18.3333 28.6458 18.3333 20.3958 18.3333 13.75 24.9792 13.75 33.2292 13.75 37.2396 15.3542 41.1354 18.2188 43.8854 16.7292 47.4375 16.9583 51.4479 18.7917 54.7708L20.2813 57.6354C21.4271 59.6979 22.2292 61.9896 22.5729 64.3958L22.6875 65.4271C22.6875 65.7708 22.8021 66 22.6875 66.3438L18.5625 70.4688C17.875 71.1562 17.5312 71.9583 17.5312 72.875L17.5312 83.6458C17.5312 85.5938 19.0208 87.0833 20.9688 87.0833L27.2708 87.0833C29.2188 87.0833 30.7083 85.5938 30.7083 83.6458 30.7083 81.6979 29.2188 80.2083 27.2708 80.2083L24.4062 80.2083 24.4062 74.1354C29.5625 74.1354 34.4896 71.9583 38.0417 68.1771L40.9063 71.9583C43.8854 75.9688 48.3542 78.7188 53.2812 79.2917 55.1146 79.4063 56.6042 80.4375 57.4062 82.1562L58.2083 83.9896C58.4375 85.4792 59.4688 86.625 60.8438 86.9688L81.4688 91.5521C83.3021 91.8958 85.1354 90.75 85.5938 88.9167 85.9375 87.0833 84.7917 85.25 82.9583 84.9062L71.0417 82.1562 72.0729 79.1771 87.5417 81.3542C89.375 81.5833 91.0938 80.2083 91.3229 78.375 91.5521 76.5417 90.2917 74.8229 88.4583 74.5938L74.25 72.6458 74.25 72.4167 74.25 72.3021 79.75 65.8854 85.8229 68.5208C90.1771 70.4688 95.3333 68.5208 97.2813 64.1667L97.3958 63.8229 93.5 59.125C94.3021 53.9688 91.6667 48.9271 86.8542 46.8646L82.6146 45.4896C81.5833 45.1458 80.6667 45.0312 79.6354 45.0312L79.0625 45.0312C78.9479 45.0312 78.7188 45.0312 78.6042 45.0312L76.0833 49.9583C75.7396 50.5312 75.625 51.2188 75.7396 51.9062 75.8542 52.9375 76.5417 53.9688 77.5729 54.4271 77.8021 54.5417 78.0312 54.6563 78.2604 54.6563 79.0625 54.8854 79.9792 54.6563 80.6667 54.3125 81.2396 53.9688 81.6979 53.3958 82.0417 52.8229 82.2708 52.25 82.9583 52.0208 83.5313 52.25 84.1042 52.4792 84.3333 53.1667 84.1042 53.7396 84.1042 53.7396 84.1042 53.7396 84.1042 53.7396 83.6458 54.6563 82.8438 55.5729 81.9271 56.1458 81.0104 56.7188 80.0938 56.9479 79.0625 57.0625 78.6042 57.0625 78.2604 57.0625 77.8021 56.9479 77.3438 56.8333 76.8854 56.7188 76.5417 56.4896 74.9375 55.5729 73.9062 54.0833 73.5625 52.25 73.4479 51.1042 73.6771 49.9583 74.1354 48.9271L75.8542 45.6042C75.625 45.7188 75.3958 45.7188 75.0521 45.8333L64.2812 49.3854ZM74.1354 67.2604 64.7396 52.7083C64.7396 52.7083 64.8542 52.7083 64.8542 52.7083 65.0833 52.5938 65.4271 52.4792 65.6562 52.3646L68.1771 51.5625 76.5417 64.5104 74.1354 67.2604Z" transform="matrix(1 0 0 1.00058 301 7.00404)"/></g></g></g><g><g><g><path d="M70.6541 29.6658 69.9073 29.6658C69.4478 26.2624 67.2892 23.3263 64.1779 21.8725 63.5335 19.0744 62.2739 15.6658 59.9429 15.6658 57.565 15.6658 56.3011 19.2126 55.6689 22.0401 53.9231 22.9173 52.3594 24.1173 51.0604 25.5767L46.6076 29.8932 41.1378 35.3631C39.7465 36.7621 37.8531 37.5463 35.8801 37.5408L19.8293 37.5408 15.6051 33.3163C14.2203 31.9935 12.0403 31.9935 10.6555 33.3163 9.28883 34.6821 9.28822 36.8974 10.6541 38.264 10.6545 38.2645 10.6551 38.265 10.6555 38.2654L14.8801 42.49 14.8801 51.6206 14.8792 51.625 14.8792 61.25C14.8791 61.3441 14.8943 61.4376 14.9241 61.5269L16.0759 64.9816C16.5507 66.4118 17.889 67.3766 19.396 67.375L21.8788 67.375C23.8102 67.373 25.3756 65.8085 25.3788 63.8771L25.3788 63.3513C25.379 61.8431 24.2513 60.5731 22.7538 60.3951L22.7538 58.1124 24.8665 56 41.1292 56 41.1292 61.25C41.1291 61.3441 41.1443 61.4376 41.1741 61.5269L42.326 64.9816C42.801 66.4118 44.1394 67.3766 45.6465 67.375L48.1292 67.375C50.0606 67.3723 51.6258 65.8077 51.6292 63.8763L51.6292 63.3513C51.6297 61.843 50.502 60.5729 49.0042 60.3947L49.0042 55.5275 53.3797 51.7711 53.3797 55.9142 53.3792 55.9163 53.3792 61.25C53.3792 61.7333 53.771 62.125 54.2542 62.125L54.7792 62.125C55.4558 62.125 56.0042 62.6735 56.0042 63.35L56.0038 63.876C56.002 64.8416 55.2194 65.6238 54.2538 65.6251L52.6465 65.6251C52.1632 65.6251 51.7715 66.0169 51.7715 66.5001 51.7715 66.9834 52.1632 67.3751 52.6465 67.3751L54.2542 67.3751C56.1854 67.3725 57.7505 65.8083 57.7542 63.8772L57.7547 63.3513C57.7546 61.8434 56.6271 60.5736 55.1297 60.3952L55.1297 55.9159 55.1301 55.9159 55.1301 50.4936C55.1343 46.7245 58.1888 43.67 61.9579 43.6658L66.0872 43.6658C71.1481 43.6602 75.2493 39.5589 75.2551 34.498L75.2551 34.2669C75.2522 31.727 73.194 29.6687 70.6541 29.6658ZM47.5597 54.4611C47.3661 54.6273 47.2547 54.8699 47.2547 55.125L47.2547 61.25C47.2547 61.7333 47.6464 62.125 48.1297 62.125L48.6547 62.125C49.3312 62.1253 49.8794 62.674 49.8791 63.3506 49.8791 63.3506 49.8791 63.3507 49.8791 63.3508L49.8791 63.8758C49.8774 64.8415 49.0948 65.6236 48.1291 65.6249L45.6465 65.6249C44.8929 65.6257 44.2237 65.1434 43.9863 64.4283L42.8793 61.1082 42.8793 55.125C42.8793 54.6418 42.4876 54.25 42.0043 54.25L24.5043 54.25C24.2724 54.2513 24.0503 54.3434 23.8854 54.5066L21.2604 57.1316C21.0963 57.2956 21.0041 57.5182 21.004 57.7502L21.004 61.2502C21.004 61.7335 21.3958 62.1252 21.879 62.1252L22.404 62.1252C23.0806 62.1252 23.629 62.6737 23.629 63.3502L23.629 63.8762C23.6275 64.8419 22.8448 65.6242 21.879 65.6253L19.396 65.6253C18.6426 65.6262 17.9735 65.1437 17.7362 64.4286L16.6292 61.1085 16.6292 55.9201 16.6301 55.9159 16.6301 42.1278C16.6287 41.8959 16.5365 41.6737 16.3734 41.5089L11.8927 37.0282C11.2095 36.3454 11.2091 35.238 11.8919 34.5548 11.8923 34.5544 11.8927 34.5539 11.8932 34.5535 12.5853 33.8922 13.6752 33.8922 14.3673 34.5535L18.848 39.0343C19.0129 39.1975 19.235 39.2896 19.467 39.2908L35.8801 39.2908C38.3175 39.2977 40.6564 38.3289 42.375 36.6005L43.0701 35.9054 54.1422 46.9779C53.7955 47.746 53.5651 48.5613 53.4582 49.3972ZM55.0584 45.4191 44.3074 34.668 45.6951 33.2804 56.3932 43.9786C55.8949 44.4064 55.4469 44.8897 55.0582 45.4191ZM73.5051 34.498C73.5003 38.5929 70.182 41.9111 66.0872 41.9158L61.9579 41.9158C60.5233 41.9144 59.1115 42.275 57.8535 42.9644L46.9323 32.0425 47.8353 31.1395 52.3018 26.8083C53.1793 25.8385 54.1726 24.9802 55.2593 24.2525 55.2004 24.6534 55.1595 24.9813 55.1357 25.1924 55.0756 25.6719 55.4156 26.1093 55.895 26.1694 56.3745 26.2295 56.812 25.8896 56.8721 25.4101 56.873 25.4028 56.8739 25.3954 56.8746 25.3881 57.2523 22.0455 58.5283 17.4152 59.9427 17.4152 61.357 17.4152 62.6331 22.0457 63.0107 25.3881 63.0604 25.8302 63.434 26.1645 63.8789 26.1652 63.912 26.1653 63.9451 26.1635 63.978 26.1597 64.4582 26.1056 64.8036 25.6726 64.7496 25.1924 64.7233 24.9604 64.6755 24.5827 64.6064 24.1253 66.7581 25.5921 68.1001 27.9807 68.2338 30.5813L68.2731 31.4152 70.6542 31.4152C72.2281 31.417 73.5034 32.6924 73.5052 34.2662Z" transform="matrix(1 0 0 1.00058 390 79.0459)"/><path d="M28.8792 60.3951 28.8792 57.75C28.8792 57.2668 28.4875 56.875 28.0042 56.875 27.521 56.875 27.1292 57.2668 27.1292 57.75L27.1292 61.25C27.1292 61.7333 27.521 62.125 28.0042 62.125L28.5292 62.125C29.2058 62.125 29.7542 62.6735 29.7542 63.35L29.7538 63.876C29.7523 64.8417 28.9695 65.6241 28.0038 65.6251L26.3961 65.6251C25.9128 65.6251 25.521 66.0169 25.521 66.5001 25.521 66.9834 25.9128 67.3751 26.3961 67.3751L28.0038 67.3751C29.9352 67.3731 31.5006 65.8086 31.5038 63.8772L31.5042 63.3522C31.5047 61.8439 30.377 60.5737 28.8792 60.3956Z" transform="matrix(1 0 0 1.00058 390 79.0459)"/><path d="M66.5034 30.1875C66.5034 30.9124 65.9157 31.5 65.1909 31.5 64.466 31.5 63.8784 30.9124 63.8784 30.1875 63.8784 29.4626 64.466 28.875 65.1909 28.875 65.9157 28.875 66.5034 29.4626 66.5034 30.1875Z" transform="matrix(1 0 0 1.00058 390 79.0459)"/></g></g></g><text fill="#156082" font-family="Aptos,Aptos_MSFontService,sans-serif" font-weight="400" font-size="24" transform="matrix(1 0 0 1.00058 11.6026 146)">Merkmal:</text><text fill="#156082" font-family="Aptos,Aptos_MSFontService,sans-serif" font-weight="400" font-size="24" transform="matrix(1 0 0 1.00058 11.6026 175)">K├╢rpergr├╢├Яe</text><text font-family="Cambria Math,Cambria Math_MSFontService,sans-serif" font-weight="400" font-size="24" transform="matrix(1 0 0 1.00058 32.6404 214)">ЁЭСЛ</text><text font-family="Cambria Math,Cambria Math_MSFontService,sans-serif" font-weight="400" font-size="24" transform="matrix(1 0 0 1.00058 72.7359 214)">:</text><text font-family="Cambria Math,Cambria Math_MSFontService,sans-serif" font-weight="400" font-size="24" transform="matrix(1 0 0 1.00058 83.0715 214)">=</text><text font-family="Cambria Math,Cambria Math_MSFontService,sans-serif" font-weight="400" font-size="24" transform="matrix(1 0 0 1.00058 125.081 214)">(</text><text font-family="Cambria Math,Cambria Math_MSFontService,sans-serif" font-weight="400" font-size="24" transform="matrix(1 0 0 1.00058 167.483 214)">ЁЭСе</text><text font-family="Cambria Math,Cambria Math_MSFontService,sans-serif" font-weight="400" font-size="18" transform="matrix(1 0 0 1.00058 179.533 219)">1</text><text font-family="Cambria Math,Cambria Math_MSFontService,sans-serif" font-weight="400" font-size="24" transform="matrix(1 0 0 1.00058 223.102 214)">,</text><text font-family="Cambria Math,Cambria Math_MSFontService,sans-serif" font-weight="400" font-size="24" transform="matrix(1 0 0 1.00058 253.562 214)">ЁЭСе</text><text font-family="Cambria Math,Cambria Math_MSFontService,sans-serif" font-weight="400" font-size="18" transform="matrix(1 0 0 1.00058 266.165 219)">2</text><text font-family="Cambria Math,Cambria Math_MSFontService,sans-serif" font-weight="400" font-size="24" transform="matrix(1 0 0 1.00058 302.787 214)">,</text><text font-family="Cambria Math,Cambria Math_MSFontService,sans-serif" font-weight="400" font-size="24" transform="matrix(1 0 0 1.00058 333.247 214)">ЁЭСе</text><text font-family="Cambria Math,Cambria Math_MSFontService,sans-serif" font-weight="400" font-size="18" transform="matrix(1 0 0 1.00058 345.849 219)">3</text><text font-family="Cambria Math,Cambria Math_MSFontService,sans-serif" font-weight="400" font-size="24" transform="matrix(1 0 0 1.00058 382.471 214)">,</text><text font-family="Cambria Math,Cambria Math_MSFontService,sans-serif" font-weight="400" font-size="24" transform="matrix(1 0 0 1.00058 412.931 214)">ЁЭСе</text><text font-family="Cambria Math,Cambria Math_MSFontService,sans-serif" font-weight="400" font-size="18" transform="matrix(1 0 0 1.00058 425.534 219)">4</text><text font-family="Cambria Math,Cambria Math_MSFontService,sans-serif" font-weight="400" font-size="24" transform="matrix(1 0 0 1.00058 462.155 214)">,</text><text font-family="Cambria Math,Cambria Math_MSFontService,sans-serif" font-weight="400" font-size="24" transform="matrix(1 0 0 1.00058 492.615 214)">ЁЭСе</text><text font-family="Cambria Math,Cambria Math_MSFontService,sans-serif" font-weight="400" font-size="18" transform="matrix(1 0 0 1.00058 505.218 219)">5</text><text font-family="Cambria Math,Cambria Math_MSFontService,sans-serif" font-weight="400" font-size="24" transform="matrix(1 0 0 1.00058 541.839 214)">,</text><text font-family="Cambria Math,Cambria Math_MSFontService,sans-serif" font-weight="400" font-size="24" transform="matrix(1 0 0 1.00058 572.299 214)">ЁЭСе</text><text font-family="Cambria Math,Cambria Math_MSFontService,sans-serif" font-weight="400" font-size="18" transform="matrix(1 0 0 1.00058 584.902 219)">6</text><text font-family="Cambria Math,Cambria Math_MSFontService,sans-serif" font-weight="400" font-size="24" transform="matrix(1 0 0 1.00058 621.524 214)">,</text><text font-family="Cambria Math,Cambria Math_MSFontService,sans-serif" font-weight="400" font-size="24" transform="matrix(1 0 0 1.00058 651.984 214)">ЁЭСе</text><text font-family="Cambria Math,Cambria Math_MSFontService,sans-serif" font-weight="400" font-size="18" transform="matrix(1 0 0 1.00058 664.586 219)">7</text><text font-family="Cambria Math,Cambria Math_MSFontService,sans-serif" font-weight="400" font-size="24" transform="matrix(1 0 0 1.00058 701.208 214)">)</text><text font-family="Cambria Math,Cambria Math_MSFontService,sans-serif" font-weight="400" font-size="24" transform="matrix(1 0 0 1.00058 38.0149 244)"></text><text font-family="Cambria Math,Cambria Math_MSFontService,sans-serif" font-weight="400" font-size="24" transform="matrix(1 0 0 1.00058 77.9037 244)">=</text><text font-family="Cambria Math,Cambria Math_MSFontService,sans-serif" font-weight="400" font-size="24" transform="matrix(1 0 0 1.00058 125.081 244)">(</text><text font-family="Cambria Math,Cambria Math_MSFontService,sans-serif" font-weight="400" font-size="24" transform="matrix(1 0 0 1.00058 159.088 244)">106</text><text font-family="Cambria Math,Cambria Math_MSFontService,sans-serif" font-weight="400" font-size="24" transform="matrix(1 0 0 1.00058 223.102 244)">,</text><text font-family="Cambria Math,Cambria Math_MSFontService,sans-serif" font-weight="400" font-size="24" transform="matrix(1 0 0 1.00058 252.109 244)">30</text><text font-family="Cambria Math,Cambria Math_MSFontService,sans-serif" font-weight="400" font-size="24" transform="matrix(1 0 0 1.00058 302.787 244)">,</text><text font-family="Cambria Math,Cambria Math_MSFontService,sans-serif" font-weight="400" font-size="24" transform="matrix(1 0 0 1.00058 331.793 244)">84</text><text font-family="Cambria Math,Cambria Math_MSFontService,sans-serif" font-weight="400" font-size="24" transform="matrix(1 0 0 1.00058 382.471 244)">,</text><text font-family="Cambria Math,Cambria Math_MSFontService,sans-serif" font-weight="400" font-size="24" transform="matrix(1 0 0 1.00058 411.477 244)">35</text><text font-family="Cambria Math,Cambria Math_MSFontService,sans-serif" font-weight="400" font-size="24" transform="matrix(1 0 0 1.00058 462.155 244)">,</text><text font-family="Cambria Math,Cambria Math_MSFontService,sans-serif" font-weight="400" font-size="24" transform="matrix(1 0 0 1.00058 491.161 244)">30</text><text font-family="Cambria Math,Cambria Math_MSFontService,sans-serif" font-weight="400" font-size="24" transform="matrix(1 0 0 1.00058 541.839 244)">,</text><text font-family="Cambria Math,Cambria Math_MSFontService,sans-serif" font-weight="400" font-size="24" transform="matrix(1 0 0 1.00058 570.846 244)">30</text><text font-family="Cambria Math,Cambria Math_MSFontService,sans-serif" font-weight="400" font-size="24" transform="matrix(1 0 0 1.00058 621.524 244)">,</text><text font-family="Cambria Math,Cambria Math_MSFontService,sans-serif" font-weight="400" font-size="24" transform="matrix(1 0 0 1.00058 650.53 244)">84</text><text font-family="Cambria Math,Cambria Math_MSFontService,sans-serif" font-weight="400" font-size="24" transform="matrix(1 0 0 1.00058 701.208 244)">)</text><path d="M182.834 128.575 182.834 187.743 180.166 187.743 180.166 128.575ZM185.501 186.408 181.5 194.415 177.499 186.408Z" fill="#156082"/><path d="M347.834 121.571 347.834 180.739 345.166 180.739 345.166 121.571ZM350.501 179.404 346.5 187.411 342.499 179.404Z" fill="#156082"/><path d="M512.834 121.571 512.834 180.739 510.166 180.739 510.166 121.571ZM515.501 179.404 511.5 187.411 507.499 179.404Z" fill="#156082"/><path d="M668.834 125.573 668.834 184.741 666.166 184.741 666.166 125.573ZM671.501 183.406 667.5 191.413 663.499 183.406Z" fill="#156082"/><path d="M272.834 163.595 272.834 184.329 270.166 184.329 270.166 163.595ZM275.501 182.995 271.5 191.001 267.499 182.995Z" fill="#156082"/><path d="M430.834 160.593 430.834 181.327 428.166 181.327 428.166 160.593ZM433.501 179.993 429.5 187.999 425.499 179.993Z" fill="#156082"/><path d="M587.834 156.591 587.834 177.325 585.166 177.325 585.166 156.591ZM590.501 175.991 586.5 183.997 582.499 175.991Z" fill="#156082"/><text font-family="Cambria Math,Cambria Math_MSFontService,sans-serif" font-weight="400" font-size="24" transform="matrix(1 0 0 1.00058 30.4367 357)"></text><text font-family="Cambria Math,Cambria Math_MSFontService,sans-serif" font-weight="400" font-size="24" transform="matrix(1 0 0 1.00058 66.1112 357)"></text><text font-family="Cambria Math,Cambria Math_MSFontService,sans-serif" font-weight="400" font-size="24" transform="matrix(1 0 0 1.00058 101.786 357)">(</text><text font-family="Cambria Math,Cambria Math_MSFontService,sans-serif" font-weight="400" font-size="24" transform="matrix(1 0 0 1.00058 135.793 357)">ЁЭСе</text><path d="M140.762 12.0712 144.682 12.0712 144.682 28.8319 140.762 28.8319 140.762 28.1552 143.223 28.1552 143.223 12.748 140.762 12.748ZM126.085 12.0712 130.005 12.0712 130.005 12.748 127.544 12.748 127.544 28.1552 130.005 28.1552 130.005 28.8319 126.085 28.8319Z" fill-rule="evenodd" transform="matrix(1 0 0 1.00058 24.5487 336.306)"/><text font-family="Cambria Math,Cambria Math_MSFontService,sans-serif" font-weight="400" font-size="18" transform="matrix(1 0 0 1.00058 154.764 362)">1</text><text font-family="Cambria Math,Cambria Math_MSFontService,sans-serif" font-weight="400" font-size="24" transform="matrix(1 0 0 1.00058 196.067 357)">,</text><text font-family="Cambria Math,Cambria Math_MSFontService,sans-serif" font-weight="400" font-size="24" transform="matrix(1 0 0 1.00058 225.073 357)">ЁЭСе</text><path d="M230.042 12.0712 233.962 12.0712 233.962 28.8319 230.042 28.8319 230.042 28.1552 232.503 28.1552 232.503 12.748 230.042 12.748ZM215.364 12.0712 219.284 12.0712 219.284 12.748 216.823 12.748 216.823 28.1552 219.284 28.1552 219.284 28.8319 215.364 28.8319Z" fill-rule="evenodd" transform="matrix(1 0 0 1.00058 24.5487 336.306)"/><text font-family="Cambria Math,Cambria Math_MSFontService,sans-serif" font-weight="400" font-size="18" transform="matrix(1 0 0 1.00058 244.044 362)">2</text><text font-family="Cambria Math,Cambria Math_MSFontService,sans-serif" font-weight="400" font-size="24" transform="matrix(1 0 0 1.00058 285.346 357)">,</text><text font-family="Cambria Math,Cambria Math_MSFontService,sans-serif" font-weight="400" font-size="24" transform="matrix(1 0 0 1.00058 314.353 357)">ЁЭСе</text><path d="M319.322 12.0712 323.242 12.0712 323.242 28.8319 319.322 28.8319 319.322 28.1552 321.783 28.1552 321.783 12.748 319.322 12.748ZM304.644 12.0712 308.564 12.0712 308.564 12.748 306.103 12.748 306.103 28.1552 308.564 28.1552 308.564 28.8319 304.644 28.8319Z" fill-rule="evenodd" transform="matrix(1 0 0 1.00058 24.5487 336.306)"/><text font-family="Cambria Math,Cambria Math_MSFontService,sans-serif" font-weight="400" font-size="18" transform="matrix(1 0 0 1.00058 333.323 362)">3</text><text font-family="Cambria Math,Cambria Math_MSFontService,sans-serif" font-weight="400" font-size="24" transform="matrix(1 0 0 1.00058 374.626 357)">,</text><text font-family="Cambria Math,Cambria Math_MSFontService,sans-serif" font-weight="400" font-size="24" transform="matrix(1 0 0 1.00058 403.632 357)">ЁЭСе</text><path d="M408.601 12.0712 412.521 12.0712 412.521 28.8319 408.601 28.8319 408.601 28.1552 411.062 28.1552 411.062 12.748 408.601 12.748ZM393.924 12.0712 397.844 12.0712 397.844 12.748 395.383 12.748 395.383 28.1552 397.844 28.1552 397.844 28.8319 393.924 28.8319Z" fill-rule="evenodd" transform="matrix(1 0 0 1.00058 24.5487 336.306)"/><text font-family="Cambria Math,Cambria Math_MSFontService,sans-serif" font-weight="400" font-size="18" transform="matrix(1 0 0 1.00058 422.603 362)">4</text><text font-family="Cambria Math,Cambria Math_MSFontService,sans-serif" font-weight="400" font-size="24" transform="matrix(1 0 0 1.00058 463.906 357)">,</text><text font-family="Cambria Math,Cambria Math_MSFontService,sans-serif" font-weight="400" font-size="24" transform="matrix(1 0 0 1.00058 492.912 357)">ЁЭСе</text><path d="M497.881 12.0712 501.801 12.0712 501.801 28.8319 497.881 28.8319 497.881 28.1552 500.342 28.1552 500.342 12.748 497.881 12.748ZM483.203 12.0712 487.123 12.0712 487.123 12.748 484.662 12.748 484.662 28.1552 487.123 28.1552 487.123 28.8319 483.203 28.8319Z" fill-rule="evenodd" transform="matrix(1 0 0 1.00058 24.5487 336.306)"/><text font-family="Cambria Math,Cambria Math_MSFontService,sans-serif" font-weight="400" font-size="18" transform="matrix(1 0 0 1.00058 511.883 362)">5</text><text font-family="Cambria Math,Cambria Math_MSFontService,sans-serif" font-weight="400" font-size="24" transform="matrix(1 0 0 1.00058 553.185 357)">,</text><text font-family="Cambria Math,Cambria Math_MSFontService,sans-serif" font-weight="400" font-size="24" transform="matrix(1 0 0 1.00058 582.192 357)">ЁЭСе</text><path d="M587.161 12.0712 591.081 12.0712 591.081 28.8319 587.161 28.8319 587.161 28.1552 589.622 28.1552 589.622 12.748 587.161 12.748ZM572.483 12.0712 576.403 12.0712 576.403 12.748 573.942 12.748 573.942 28.1552 576.403 28.1552 576.403 28.8319 572.483 28.8319Z" fill-rule="evenodd" transform="matrix(1 0 0 1.00058 24.5487 336.306)"/><text font-family="Cambria Math,Cambria Math_MSFontService,sans-serif" font-weight="400" font-size="18" transform="matrix(1 0 0 1.00058 601.163 362)">6</text><text font-family="Cambria Math,Cambria Math_MSFontService,sans-serif" font-weight="400" font-size="24" transform="matrix(1 0 0 1.00058 642.465 357)">,</text><text font-family="Cambria Math,Cambria Math_MSFontService,sans-serif" font-weight="400" font-size="24" transform="matrix(1 0 0 1.00058 673.338 357)">ЁЭСе</text><path d="M678.307 12.0712 682.227 12.0712 682.227 28.8319 678.307 28.8319 678.307 28.1552 680.768 28.1552 680.768 12.748 678.307 12.748ZM663.63 12.0712 667.55 12.0712 667.55 12.748 665.089 12.748 665.089 28.1552 667.55 28.1552 667.55 28.8319 663.63 28.8319Z" fill-rule="evenodd" transform="matrix(1 0 0 1.00058 24.5487 336.306)"/><text font-family="Cambria Math,Cambria Math_MSFontService,sans-serif" font-weight="400" font-size="18" transform="matrix(1 0 0 1.00058 692.309 362)">7</text><text font-family="Cambria Math,Cambria Math_MSFontService,sans-serif" font-weight="400" font-size="24" transform="matrix(1 0 0 1.00058 735.485 357)">)</text><text font-family="Cambria Math,Cambria Math_MSFontService,sans-serif" font-weight="400" font-size="24" transform="matrix(1 0 0 1.00058 30.4367 390)"></text><text font-family="Cambria Math,Cambria Math_MSFontService,sans-serif" font-weight="400" font-size="24" transform="matrix(1 0 0 1.00058 59.7765 390)">=</text><text font-family="Cambria Math,Cambria Math_MSFontService,sans-serif" font-weight="400" font-size="24" transform="matrix(1 0 0 1.00058 101.786 390)">(</text><text font-family="Cambria Math,Cambria Math_MSFontService,sans-serif" font-weight="400" font-size="24" transform="matrix(1 0 0 1.00058 140.588 390)">30</text><text font-family="Cambria Math,Cambria Math_MSFontService,sans-serif" font-weight="400" font-size="24" transform="matrix(1 0 0 1.00058 196.067 390)">,</text><text font-family="Cambria Math,Cambria Math_MSFontService,sans-serif" font-weight="400" font-size="24" transform="matrix(1 0 0 1.00058 229.867 390)">30</text><text font-family="Cambria Math,Cambria Math_MSFontService,sans-serif" font-weight="400" font-size="24" transform="matrix(1 0 0 1.00058 285.346 390)">,</text><text font-family="Cambria Math,Cambria Math_MSFontService,sans-serif" font-weight="400" font-size="24" transform="matrix(1 0 0 1.00058 319.147 390)">30</text><text font-family="Cambria Math,Cambria Math_MSFontService,sans-serif" font-weight="400" font-size="24" transform="matrix(1 0 0 1.00058 374.626 390)">,</text><text font-family="Cambria Math,Cambria Math_MSFontService,sans-serif" font-weight="400" font-size="24" transform="matrix(1 0 0 1.00058 408.427 390)">35</text><text font-family="Cambria Math,Cambria Math_MSFontService,sans-serif" font-weight="400" font-size="24" transform="matrix(1 0 0 1.00058 463.906 390)">,</text><text font-family="Cambria Math,Cambria Math_MSFontService,sans-serif" font-weight="400" font-size="24" transform="matrix(1 0 0 1.00058 497.706 390)">84</text><text font-family="Cambria Math,Cambria Math_MSFontService,sans-serif" font-weight="400" font-size="24" transform="matrix(1 0 0 1.00058 553.185 390)">,</text><text font-family="Cambria Math,Cambria Math_MSFontService,sans-serif" font-weight="400" font-size="24" transform="matrix(1 0 0 1.00058 586.986 390)">84</text><text font-family="Cambria Math,Cambria Math_MSFontService,sans-serif" font-weight="400" font-size="24" transform="matrix(1 0 0 1.00058 642.465 390)">,</text><text font-family="Cambria Math,Cambria Math_MSFontService,sans-serif" font-weight="400" font-size="24" transform="matrix(1 0 0 1.00058 671.471 390)">106</text><text font-family="Cambria Math,Cambria Math_MSFontService,sans-serif" font-weight="400" font-size="24" transform="matrix(1 0 0 1.00058 735.485 390)">)</text><path d="M311.5 303.583 324.471 303.583 324.471 257.65 524.529 257.65 524.529 303.583 537.5 303.583 424.5 335.695Z" stroke="#FFFFFF" stroke-width="2.66725" stroke-miterlimit="8" fill="#83CBEB" fill-rule="evenodd"/><text fill="#156082" font-family="Aptos,Aptos_MSFontService,sans-serif" font-weight="400" font-size="19" transform="matrix(1 0 0 1.00058 384.579 276)">Sortieren:</text><text fill="#156082" font-family="Cambria Math,Cambria Math_MSFontService,sans-serif" font-weight="400" font-size="19" transform="matrix(1 0 0 1.00058 337.595 299)">ЁЭСе</text><text fill="#156082" font-family="Cambria Math,Cambria Math_MSFontService,sans-serif" font-weight="400" font-size="14" transform="matrix(1 0 0 1.00058 346.984 303)">1</text><text fill="#156082" font-family="Cambria Math,Cambria Math_MSFontService,sans-serif" font-weight="400" font-size="19" transform="matrix(1 0 0 1.00058 360.78 299)">тЖТ</text><text fill="#156082" font-family="Cambria Math,Cambria Math_MSFontService,sans-serif" font-weight="400" font-size="19" transform="matrix(1 0 0 1.00058 381.638 299)">ЁЭСе</text><path d="M70.6828 11.3317 73.7316 11.3317 73.7316 24.3679 70.6828 24.3679 70.6828 23.8415 72.5969 23.8415 72.5969 11.8581 70.6828 11.8581ZM59.338 11.3317 62.3868 11.3317 62.3868 11.8581 60.4728 11.8581 60.4728 23.8415 62.3868 23.8415 62.3868 24.3679 59.338 24.3679Z" fill="#156082" fill-rule="evenodd" transform="matrix(1 0 0 1.00058 333.861 281.04)"/><text fill="#156082" font-family="Cambria Math,Cambria Math_MSFontService,sans-serif" font-weight="400" font-size="14" transform="matrix(1 0 0 1.00058 396.414 303)">7</text><text fill="#156082" font-family="Cambria Math,Cambria Math_MSFontService,sans-serif" font-weight="400" font-size="19" transform="matrix(1 0 0 1.00058 409.797 299)">,</text><text fill="#156082" font-family="Cambria Math,Cambria Math_MSFontService,sans-serif" font-weight="400" font-size="19" transform="matrix(1 0 0 1.00058 416.746 299)">ЁЭСе</text><text fill="#156082" font-family="Cambria Math,Cambria Math_MSFontService,sans-serif" font-weight="400" font-size="14" transform="matrix(1 0 0 1.00058 426.568 303)">2</text><text fill="#156082" font-family="Cambria Math,Cambria Math_MSFontService,sans-serif" font-weight="400" font-size="19" transform="matrix(1 0 0 1.00058 440.364 299)">тЖТ</text><text fill="#156082" font-family="Cambria Math,Cambria Math_MSFontService,sans-serif" font-weight="400" font-size="19" transform="matrix(1 0 0 1.00058 461.222 299)">ЁЭСе</text><path d="M150.267 11.3317 153.316 11.3317 153.316 24.3679 150.267 24.3679 150.267 23.8415 152.181 23.8415 152.181 11.8581 150.267 11.8581ZM138.922 11.3317 141.971 11.3317 141.971 11.8581 140.057 11.8581 140.057 23.8415 141.971 23.8415 141.971 24.3679 138.922 24.3679Z" fill="#156082" fill-rule="evenodd" transform="matrix(1 0 0 1.00058 333.861 281.04)"/><text fill="#156082" font-family="Cambria Math,Cambria Math_MSFontService,sans-serif" font-weight="400" font-size="14" transform="matrix(1 0 0 1.00058 475.999 303)">1</text><text fill="#156082" font-family="Cambria Math,Cambria Math_MSFontService,sans-serif" font-weight="400" font-size="19" transform="matrix(1 0 0 1.00058 489.382 299)">,</text><text fill="#156082" font-family="Cambria Math,Cambria Math_MSFontService,sans-serif" font-weight="400" font-size="19" transform="matrix(1 0 0 1.00058 496.33 299)">тАж</text></g></svg>